<?xml version="1.0" encoding="utf-8"?>
<!-- Generator: Adobe Illustrator 24.3.0, SVG Export Plug-In . SVG Version: 6.00 Build 0)  -->
<svg version="1.1" id="Layer_1" xmlns="http://www.w3.org/2000/svg" xmlns:xlink="http://www.w3.org/1999/xlink" x="0px" y="0px"
	 viewBox="0 0 410.5 174.8" style="enable-background:new 0 0 410.5 174.8;" xml:space="preserve">
<style type="text/css">
	.st0{fill:#71D5DE;}
	.st1{fill:#008380;}
	.st2{fill:#5F2214;}
</style>
<g>
	<g>
		<path class="st0" d="M81.7,19.3c-1.2-2.6-2.7-5-4.6-7.1c-0.6-0.6-1.2-1.2-1.8-1.8C55.1-8.2,24.9,0.7,10.1,16.8
			c-2,2.1-3.6,4.4-5,6.7C2.3,28.4,0.7,33.8,1,39.6c0.1,1.5,1.4,3.1,2.9,4.1c1,0.7,4.2,1.7,4-1.1c-0.3-4.7,1-9.5,3.6-13.9
			c10.5-18,40.3-27.2,57-17.4c1.4,0.8,2.8,1.8,4,2.9c0.2,0.2,0.4,0.4,0.6,0.6c8.9,10,4.9,43.9-13.7,60.5c-2.8,2.4-5.8,4.5-9.2,6
			c-9,4.1-16.2,3.6-20.9,1.8c7.3-25.2,12.2-51.6,11.4-63.2c-0.1-1.5-1.5-3.1-2.9-4.1c-1-0.7-4.2-1.7-4,1.1
			c0.7,10.6-4.2,36.3-11.3,60.9c-0.8-1.4-1.2-2.8-1-4.1c0.2-1.6-1.2-3.2-2.5-4.2c-0.9-0.7-4-2.3-4.3,0.4c-0.5,3.7,1.5,8.9,6.2,13.5
			c-6.1,20.7-13.7,39.7-20.4,47.3c-1.4,1.5,0.4,3.6,1.4,4.6c1,0.9,3.2,2.8,4.6,1.1c7.3-8.2,15-27.3,21.3-48
			c7.4,3.9,16.6,4.3,27.3-0.6C79.3,76.8,91.5,40.6,81.7,19.3z"/>
		<path class="st0" d="M236.8,81.4c-0.9-0.9-3.3-2.8-4.6-0.9c-2.2,3-9,12.2-16.1,19.9c-5,5.4-10.4,10-13.6,11.2
			c-0.3-6.4,3.8-20.1,4.5-24c0.1-0.8,0.8-3.9-3.1-6.9c-4.1-3.1-8.3-1.6-12.3-0.6c0.9-1.2,2-2.8,2.9-4.2c0.4-0.6,0.7-1.2,1-1.7
			c2.6-4.9,5-10-0.4-14.9c-4.5-4-9-2.2-12.2,1.4c-1.6,1.7-2.9,3.9-4.1,6.2c-0.6,1.2-1.1,2.4-1.5,3.6c-1,3.1-2.5,7.9,1.4,12.6
			c-3.1,4.1-8.7,11.3-14.4,17.5c-5,5.4-10.4,10-13.6,11.2c-0.3-6.4,3.8-20.1,4.5-24c0.1-0.8,0.8-3.9-3.1-6.9
			c-4.1-3.1-8.3-1.6-12.3-0.6c0.9-1.2,2-2.8,2.9-4.2c0.4-0.6,0.7-1.2,1-1.7c2.6-4.9,5-10-0.4-14.9c-4.5-4-9-2.2-12.2,1.4
			c-1.6,1.7-2.9,3.9-4.1,6.2c-0.6,1.2-1.1,2.4-1.5,3.6c-1,3-2.4,7.6,1.1,12.2c-2.8,2.7-8.2,7.4-15.7,12.2
			c-7.2,4.6-15.7,8.4-23.3,8.4c-4.2,0-6.3-1.8-6.4-2c-0.5-0.7-1.6-3.4-0.8-7.4c0.1-0.5,0.2-0.8,0.3-1.5c9.8,0.3,17.2-1.6,22.1-4.4
			c5.9-3.4,10-8.5,6.5-14.7c-0.2-0.4-0.5-0.8-0.7-1.1c-3.4-4.8-8.1-5.7-11.7-5.7c-6,0-17.2,4.5-22,18.2c-0.6,1.6-1,3.3-1.4,5.2
			c-0.9,4.6-0.4,8.7,2.5,12.8c4.4,6.1,10.5,7.5,14.7,7.5c8.9,0,17.8-4.2,25.3-8.9c9-5.7,14.9-11.2,17.4-13.8c1,0.2,2.1,0.4,3.2,0.4
			c4.3,0,8.2-0.8,11.2-1.3c-1.8,6.3-7.3,21.1-2,28.3c0.3,0.5,0.8,1,1.3,1.5c6,6,12.6,1.1,17.9-4.1c1.9-1.9,3.7-3.9,5.4-5.7
			c6.4-6.9,12.6-15,15.4-18.9c0.9,0.2,1.9,0.3,2.9,0.3c4.3,0,8.2-0.8,11.2-1.3c-1.8,6.3-7.3,21.1-2,28.3c0.3,0.5,0.8,1,1.3,1.5
			c6,6,12.6,1.1,17.9-4.1c1.9-1.9,3.7-3.9,5.4-5.7c7.3-7.9,14.2-17.1,16.4-20.2C239.6,84.3,237.9,82.4,236.8,81.4z M99.8,73.1
			c1.5,0,2.6,0.2,3.4,0.5c0.1,1.5-1.2,5.1-5.9,7.8c-3.3,1.9-8.1,3.4-14.5,3.8C87.7,76,96.1,73.1,99.8,73.1z M136.1,70.6
			c-1.4,2.3-3,4.5-4.8,6.4c0.3-1.5,1-3.6,1.9-5.4c1.7-3.3,3.7-5.5,5.6-6.8C138.3,66.4,137.4,68.3,136.1,70.6z M188.1,70.6
			c-1.4,2.3-3,4.5-4.8,6.4c0.3-1.5,1-3.6,1.9-5.4c1.7-3.3,3.7-5.5,5.6-6.8C190.2,66.4,189.4,68.3,188.1,70.6z"/>
	</g>
	<g>
		<path class="st1" d="M299.4,3.5c-6.5-5-15,0.6-20.8,8.2c-4.4,5.7-7.8,13-8.5,19.6c-0.5,5.2,0.3,11.4,6.3,17.4c1,1,3.1,2.8,4.6,1.3
			s-0.3-3.6-1.2-4.6c-0.4-0.4-0.7-0.8-1.1-1.3c-6-9.2,4.9-27.7,14.1-33.7c1.6-1.1,3.1-1.7,4.2-1.8c0.2,1.1,0.3,2.9,0,5.2
			c-3.2,29.3-20.2,100.7-30.6,112.8c-1.3,1.6,0.4,3.6,1.4,4.6c1,0.9,3.2,2.8,4.6,1.1c11.8-13.7,28.1-84.7,31.4-114.7
			C304.5,12.8,304.7,7.6,299.4,3.5z"/>
		<path class="st1" d="M408.5,81.4c-0.9-0.9-3.2-2.8-4.6-1c-2.7,3.4-8,9.4-15.2,16.2c-3.2,3-6.5,5.2-8.8,5.7
			c0.1-2.8,1.1-7.5,2.2-12.1c1.4-6,5.4-15.8-2.5-22.1c-1-0.8-2-1.3-2.8-1.6c-5.3-2-9.6,0.6-13.2,4.8c0-1.2-1-2.7-2.3-3.7
			c-0.8-0.7-3.7-2.6-4.5-0.1c-0.9,2.8-2.5,8.4-4.2,14.3c-2.9,3.5-7.8,8.9-14.2,14.9c-3.2,3-6.5,5.2-8.8,5.7
			c0.1-2.8,1.1-7.5,2.2-12.1c1.4-6,5.4-15.8-2.5-22.1c-1-0.8-2-1.3-2.8-1.6c-5.3-2-9.6,0.6-13.2,4.8c0-1.2-1-2.7-2.3-3.7
			c-0.8-0.7-3.7-2.6-4.5-0.1c-2.5,8-10.5,36.9-10.5,36.9c-0.5,1.7,1.1,3.5,2.5,4.5c0.9,0.7,3.5,2.1,4.2-0.1c0,0,4.2-12.1,10.1-22.4
			c4.6-8.1,10.4-13.8,14-13.7c0.4,2.6-0.5,8.1-1.7,13.3c-1.3,5.4-2.7,10.7-2.2,14.9c0.2,1.2,0.8,4.5,4.5,6.9
			c6.7,4.4,12.3-1,16.8-5.2c1.2-1.2,2.4-2.3,3.6-3.4c-0.9,3.1-1.5,5.2-1.5,5.2c-0.5,1.7,1.1,3.5,2.5,4.5c0.9,0.7,3.5,2.1,4.2-0.1
			c0,0,4.2-12.1,10.1-22.4c4.6-8.1,10.4-13.8,14-13.7c0.4,2.6-0.5,8.1-1.7,13.3c-1.3,5.4-2.7,10.7-2.2,14.9c0.2,1.2,0.8,4.5,4.5,6.9
			c6.7,4.4,12.3-1,16.8-5.2c7.4-6.9,12.7-12.9,15.6-16.5C411.2,84.4,409.5,82.5,408.5,81.4z"/>
	</g>
	<g>
		<polygon class="st2" points="29.1,160.9 24.1,160.9 24.1,155 20.9,155 20.9,170.1 24.1,170.1 24.1,163.5 29.1,163.5 29.1,170.1 
			32.3,170.1 32.3,155 29.1,155 		"/>
		<path class="st2" d="M42.6,158.2c-1.1,0-2.1,0.3-3,0.8c-0.8,0.5-1.5,1.2-1.9,2.1c-0.4,0.9-0.7,2-0.7,3.2c0,1.9,0.5,3.4,1.5,4.5
			s2.3,1.6,4.1,1.6c1.1,0,2.1-0.3,3-0.8c0.8-0.5,1.5-1.2,1.9-2.1c0.4-0.9,0.7-2,0.7-3.2c0-1.9-0.5-3.4-1.5-4.5
			C45.7,158.7,44.4,158.2,42.6,158.2z M44.3,167.2c-0.4,0.6-1,0.9-1.7,0.9c-0.8,0-1.3-0.3-1.7-0.9c-0.4-0.6-0.6-1.6-0.6-2.9
			c0-1.3,0.2-2.3,0.6-2.9c0.4-0.6,1-0.9,1.8-0.9s1.3,0.3,1.7,0.9c0.4,0.6,0.6,1.6,0.6,2.9C44.9,165.6,44.7,166.5,44.3,167.2z"/>
		<path class="st2" d="M57.4,167.9c-0.4,0-0.7-0.1-0.9-0.4c-0.2-0.2-0.3-0.6-0.3-1.2v-5.7h2.4l0.3-2.2h-2.7v-2.9l-3.1,0.4v2.5h-1.7
			v2.2h1.7v5.8c0,1.3,0.3,2.3,0.9,2.9s1.5,1,2.7,1c0.5,0,1-0.1,1.6-0.2c0.5-0.2,1-0.4,1.4-0.7l-1.1-2
			C58.2,167.8,57.8,167.9,57.4,167.9z"/>
		<path class="st2" d="M67.7,158.2c-1.1,0-2,0.3-2.8,0.8s-1.4,1.3-1.8,2.2c-0.4,0.9-0.6,2-0.6,3.2c0,1.9,0.5,3.3,1.5,4.4
			c1,1.1,2.4,1.6,4.2,1.6c1.6,0,3.1-0.5,4.4-1.6l-1.3-1.7c-0.5,0.3-1,0.6-1.4,0.8s-0.9,0.2-1.4,0.2c-0.8,0-1.4-0.2-1.9-0.7
			s-0.7-1.2-0.8-2.2H73c0-0.7,0.1-1.1,0.1-1.2c0-1.8-0.5-3.3-1.4-4.3C70.7,158.7,69.4,158.2,67.7,158.2z M69.9,163.3h-4.2
			c0.1-1.1,0.3-1.8,0.6-2.3s0.9-0.7,1.5-0.7C69.2,160.3,69.9,161.3,69.9,163.3L69.9,163.3z"/>
		<path class="st2" d="M81.2,167.9c-0.4,0-0.6-0.3-0.6-0.8v-13.6l-3.1,0.3v13.4c0,1,0.3,1.8,0.8,2.3s1.3,0.8,2.2,0.8
			c0.7,0,1.4-0.1,2-0.4l-0.6-2.2C81.6,167.9,81.4,167.9,81.2,167.9z"/>
		<path class="st2" d="M100.4,158.2c-0.6,0-1.2,0.1-1.8,0.4c-0.6,0.3-1.1,0.7-1.5,1.3l-0.2-1.4h-2.7v16.3l3.1-0.3v-5.3
			c0.7,0.8,1.7,1.2,2.9,1.2c0.9,0,1.8-0.3,2.5-0.8s1.2-1.3,1.6-2.2s0.5-2,0.5-3.2c0-1.9-0.4-3.4-1.1-4.5
			C102.9,158.7,101.8,158.2,100.4,158.2z M99.2,168.1c-0.8,0-1.4-0.4-1.9-1.1v-5c0.3-0.5,0.6-0.8,1-1.1s0.8-0.4,1.2-0.4
			c0.7,0,1.2,0.3,1.5,0.9c0.3,0.6,0.5,1.6,0.5,3C101.4,166.8,100.7,168.1,99.2,168.1z"/>
		<path class="st2" d="M118.3,167.8c-0.1-0.2-0.2-0.5-0.2-1v-4.7c0-1.3-0.4-2.3-1.1-3s-1.9-1-3.5-1c-1.4,0-2.8,0.3-4.3,0.8l0.7,2.1
			c1.2-0.4,2.2-0.6,3-0.6c0.7,0,1.3,0.1,1.6,0.4c0.3,0.3,0.5,0.8,0.5,1.5v0.6h-1.3c-1.7,0-3,0.3-3.9,1s-1.4,1.6-1.4,2.9
			c0,1.1,0.3,1.9,1,2.6s1.6,1,2.7,1c1.6,0,2.7-0.6,3.5-1.7c0.2,0.6,0.6,1,1,1.2c0.4,0.3,1,0.4,1.7,0.5l0.7-2
			C118.7,168.2,118.4,168.1,118.3,167.8z M115.1,166.9c-0.5,0.9-1.2,1.3-2,1.3c-0.5,0-0.8-0.1-1.1-0.4c-0.3-0.3-0.4-0.7-0.4-1.2
			c0-1.2,0.8-1.9,2.5-1.9h1V166.9z"/>
		<path class="st2" d="M127.8,158.9c-0.5,0.5-0.9,1.1-1.2,1.9l-0.3-2.2h-2.7v11.5h3.1v-6c0.2-1,0.5-1.7,0.9-2.2
			c0.4-0.5,0.9-0.7,1.6-0.7c0.3,0,0.6,0.1,1,0.2l0.5-3c-0.4-0.1-0.8-0.2-1.2-0.2C128.9,158.2,128.3,158.4,127.8,158.9z"/>
		<path class="st2" d="M142.9,167.8c-0.1-0.2-0.2-0.5-0.2-1v-4.7c0-1.3-0.4-2.3-1.1-3c-0.7-0.7-1.9-1-3.5-1c-1.4,0-2.8,0.3-4.3,0.8
			l0.7,2.1c1.2-0.4,2.2-0.6,3-0.6c0.7,0,1.3,0.1,1.6,0.4c0.3,0.3,0.5,0.8,0.5,1.5v0.6h-1.3c-1.7,0-3,0.3-3.9,1s-1.4,1.6-1.4,2.9
			c0,1.1,0.3,1.9,1,2.6s1.6,1,2.7,1c1.6,0,2.7-0.6,3.5-1.7c0.2,0.6,0.6,1,1,1.2c0.4,0.3,1,0.4,1.7,0.5l0.7-2
			C143.2,168.2,143,168.1,142.9,167.8z M139.7,166.9c-0.5,0.9-1.2,1.3-2,1.3c-0.5,0-0.8-0.1-1.1-0.4c-0.3-0.3-0.4-0.7-0.4-1.2
			c0-1.2,0.8-1.9,2.5-1.9h1V166.9z"/>
		<path class="st2" d="M162.1,158.2c-0.6,0-1.2,0.1-1.8,0.4c-0.6,0.3-1.1,0.7-1.5,1.3l-0.2-1.4h-2.7v16.3l3.1-0.3v-5.3
			c0.7,0.8,1.7,1.2,2.9,1.2c0.9,0,1.8-0.3,2.5-0.8s1.2-1.3,1.6-2.2c0.4-0.9,0.5-2,0.5-3.2c0-1.9-0.4-3.4-1.1-4.5
			C164.7,158.7,163.6,158.2,162.1,158.2z M160.9,168.1c-0.8,0-1.4-0.4-1.9-1.1v-5c0.3-0.5,0.6-0.8,1-1.1s0.8-0.4,1.2-0.4
			c0.7,0,1.2,0.3,1.5,0.9c0.3,0.6,0.5,1.6,0.5,3C163.2,166.8,162.4,168.1,160.9,168.1z"/>
		<path class="st2" d="M175.8,158.2c-1.1,0-2,0.3-2.8,0.8s-1.4,1.3-1.8,2.2c-0.4,0.9-0.6,2-0.6,3.2c0,1.9,0.5,3.3,1.5,4.4
			c1,1.1,2.4,1.6,4.2,1.6c1.6,0,3.1-0.5,4.4-1.6l-1.3-1.7c-0.5,0.3-1,0.6-1.4,0.8s-0.9,0.2-1.4,0.2c-0.8,0-1.4-0.2-1.9-0.7
			s-0.7-1.2-0.8-2.2h7.2c0-0.7,0.1-1.1,0.1-1.2c0-1.8-0.5-3.3-1.4-4.3C178.7,158.7,177.5,158.2,175.8,158.2z M178,163.3h-4.2
			c0.1-1.1,0.3-1.8,0.6-2.3s0.9-0.7,1.5-0.7C177.3,160.3,178,161.3,178,163.3L178,163.3L178,163.3z"/>
		<path class="st2" d="M189.8,158.9c-0.5,0.5-0.9,1.1-1.2,1.9l-0.3-2.2h-2.7v11.5h3.1v-6c0.2-1,0.5-1.7,0.9-2.2s0.9-0.7,1.6-0.7
			c0.3,0,0.6,0.1,1,0.2l0.5-3c-0.4-0.1-0.8-0.2-1.2-0.2C191,158.2,190.4,158.4,189.8,158.9z"/>
		<path class="st2" d="M200.9,158.9c-0.5,0.5-0.9,1.1-1.2,1.9l-0.3-2.2h-2.7v11.5h3.1v-6c0.2-1,0.5-1.7,0.9-2.2s0.9-0.7,1.6-0.7
			c0.3,0,0.6,0.1,1,0.2l0.5-3c-0.4-0.1-0.8-0.2-1.2-0.2C202,158.2,201.4,158.4,200.9,158.9z"/>
		<path class="st2" d="M212,158.2c-1.1,0-2.1,0.3-3,0.8c-0.8,0.5-1.5,1.2-1.9,2.1c-0.4,0.9-0.7,2-0.7,3.2c0,1.9,0.5,3.4,1.5,4.5
			s2.3,1.6,4.1,1.6c1.1,0,2.1-0.3,3-0.8c0.8-0.5,1.5-1.2,1.9-2.1c0.4-0.9,0.7-2,0.7-3.2c0-1.9-0.5-3.4-1.5-4.5
			C215,158.7,213.7,158.2,212,158.2z M213.7,167.2c-0.4,0.6-1,0.9-1.7,0.9c-0.8,0-1.3-0.3-1.7-0.9s-0.6-1.6-0.6-2.9
			c0-1.3,0.2-2.3,0.6-2.9s1-0.9,1.8-0.9s1.3,0.3,1.7,0.9c0.4,0.6,0.6,1.6,0.6,2.9C214.2,165.6,214.1,166.5,213.7,167.2z"/>
		<path class="st2" d="M227,163c-0.7-0.2-1.2-0.4-1.5-0.5s-0.6-0.3-0.7-0.5c-0.1-0.2-0.2-0.4-0.2-0.6c0-0.3,0.1-0.6,0.4-0.8
			c0.3-0.2,0.7-0.3,1.2-0.3c0.9,0,1.9,0.3,2.9,0.9l1.2-1.8c-1.2-0.9-2.6-1.4-4.2-1.4c-0.9,0-1.7,0.1-2.4,0.4s-1.2,0.7-1.6,1.2
			c-0.4,0.5-0.6,1.1-0.6,1.8c0,0.9,0.3,1.6,0.8,2.2c0.6,0.6,1.4,1,2.6,1.4c0.7,0.2,1.3,0.4,1.6,0.5s0.6,0.3,0.7,0.5s0.2,0.4,0.2,0.7
			c0,0.4-0.2,0.7-0.5,0.9s-0.8,0.3-1.4,0.3c-1.1,0-2.1-0.4-3.1-1.1l-1.5,1.7c0.6,0.5,1.2,0.9,2,1.2s1.7,0.4,2.7,0.4
			c0.9,0,1.8-0.1,2.5-0.4c0.8-0.3,1.4-0.7,1.8-1.3c0.4-0.6,0.7-1.2,0.7-2c0-1-0.3-1.7-0.9-2.3C229.1,163.8,228.2,163.4,227,163z"/>
		<path class="st2" d="M255.2,158.2c-0.7,0-1.3,0.2-1.9,0.5c-0.6,0.3-1.1,0.8-1.6,1.4c-0.2-0.6-0.6-1.1-1-1.4
			c-0.5-0.3-1-0.5-1.7-0.5s-1.3,0.2-1.9,0.5c-0.5,0.3-1,0.7-1.5,1.3l-0.2-1.4h-2.7v11.5h3.1v-8c0.3-0.5,0.6-0.9,0.9-1.2
			c0.3-0.3,0.7-0.4,1.1-0.4c0.8,0,1.1,0.6,1.1,1.7v7.9h3.1v-8c0.3-0.6,0.6-1,0.9-1.2c0.3-0.3,0.7-0.4,1.1-0.4c0.8,0,1.1,0.6,1.1,1.7
			v7.9h3.1v-8.4c0-1.1-0.3-1.9-0.8-2.5C256.9,158.5,256.2,158.2,255.2,158.2z"/>
		<path class="st2" d="M270,166.6c-0.6,1-1.3,1.5-2.1,1.5c-0.4,0-0.8-0.1-1-0.4c-0.2-0.3-0.3-0.7-0.3-1.3v-7.9h-3.1v8.3
			c0,1.1,0.3,2,0.8,2.6c0.6,0.6,1.4,0.9,2.4,0.9c0.8,0,1.4-0.2,2-0.5s1.1-0.8,1.5-1.4l0.2,1.5h2.7v-11.5H270V166.6z"/>
		<path class="st2" d="M282.6,168l-2.3-9.5H277l3.6,11.5h1.1c-0.3,0.8-0.8,1.4-1.3,1.8c-0.5,0.4-1.3,0.6-2.4,0.8l0.3,2.2
			c1.7-0.1,3-0.6,4-1.4c1-0.8,1.7-1.9,2.2-3.4l3.7-11.6H285L282.6,168z"/>
		<path class="st2" d="M308.8,167.8c-0.1-0.2-0.2-0.5-0.2-1v-4.7c0-1.3-0.4-2.3-1.1-3s-1.9-1-3.5-1c-1.4,0-2.8,0.3-4.3,0.8l0.7,2.1
			c1.2-0.4,2.2-0.6,3-0.6c0.7,0,1.3,0.1,1.6,0.4c0.3,0.3,0.5,0.8,0.5,1.5v0.6h-1.3c-1.7,0-3,0.3-3.9,1s-1.4,1.6-1.4,2.9
			c0,1.1,0.3,1.9,1,2.6c0.7,0.7,1.6,1,2.7,1c1.6,0,2.7-0.6,3.5-1.7c0.2,0.6,0.6,1,1,1.2c0.4,0.3,1,0.4,1.7,0.5l0.7-2
			C309.1,168.2,308.9,168.1,308.8,167.8z M305.6,166.9c-0.5,0.9-1.2,1.3-2,1.3c-0.5,0-0.8-0.1-1.1-0.4s-0.4-0.7-0.4-1.2
			c0-1.2,0.8-1.9,2.5-1.9h1V166.9z"/>
		<path class="st2" d="M326.6,158.2c-0.7,0-1.3,0.2-1.9,0.5s-1.1,0.8-1.6,1.4c-0.2-0.6-0.6-1.1-1-1.4c-0.5-0.3-1-0.5-1.7-0.5
			s-1.3,0.2-1.9,0.5c-0.5,0.3-1,0.7-1.5,1.3l-0.2-1.4h-2.7v11.5h3.1v-8c0.3-0.5,0.6-0.9,0.9-1.2s0.7-0.4,1.1-0.4
			c0.8,0,1.1,0.6,1.1,1.7v7.9h3.1v-8c0.3-0.6,0.6-1,0.9-1.2c0.3-0.3,0.7-0.4,1.1-0.4c0.8,0,1.1,0.6,1.1,1.7v7.9h3.1v-8.4
			c0-1.1-0.3-1.9-0.8-2.5C328.2,158.5,327.5,158.2,326.6,158.2z"/>
		<path class="st2" d="M344,167.8c-0.1-0.2-0.2-0.5-0.2-1v-4.7c0-1.3-0.4-2.3-1.1-3s-1.9-1-3.5-1c-1.4,0-2.8,0.3-4.3,0.8l0.7,2.1
			c1.2-0.4,2.2-0.6,3-0.6c0.7,0,1.3,0.1,1.6,0.4c0.3,0.3,0.5,0.8,0.5,1.5v0.6h-1.3c-1.7,0-3,0.3-3.9,1s-1.4,1.6-1.4,2.9
			c0,1.1,0.3,1.9,1,2.6c0.7,0.7,1.6,1,2.7,1c1.6,0,2.7-0.6,3.5-1.7c0.2,0.6,0.6,1,1,1.2c0.4,0.3,1,0.4,1.7,0.5l0.7-2
			C344.3,168.2,344.1,168.1,344,167.8z M340.7,166.9c-0.5,0.9-1.2,1.3-2,1.3c-0.5,0-0.8-0.1-1.1-0.4s-0.4-0.7-0.4-1.2
			c0-1.2,0.8-1.9,2.5-1.9h1V166.9z"/>
		<path class="st2" d="M356.2,159.3c-0.8-0.8-1.7-1.2-2.8-1.2c-0.9,0-1.8,0.3-2.5,0.8s-1.3,1.2-1.6,2.2s-0.6,2-0.6,3.2
			c0,1.9,0.4,3.4,1.1,4.5s1.8,1.6,3.3,1.6c1.4,0,2.5-0.6,3.3-1.8l0.2,1.4h2.7v-16.1l-3.1-0.3V159.3z M356.2,166.7
			c-0.3,0.5-0.7,0.8-1,1.1c-0.3,0.2-0.7,0.3-1.2,0.3c-0.7,0-1.2-0.3-1.5-0.9c-0.4-0.6-0.5-1.6-0.5-2.9c0-1.3,0.2-2.3,0.6-2.9
			c0.4-0.6,1-0.9,1.7-0.9c0.4,0,0.8,0.1,1.1,0.3c0.3,0.2,0.6,0.5,0.9,0.8v5.1L356.2,166.7L356.2,166.7z"/>
		<path class="st2" d="M369.6,158.2c-1.1,0-2.1,0.3-3,0.8c-0.8,0.5-1.5,1.2-1.9,2.1c-0.4,0.9-0.7,2-0.7,3.2c0,1.9,0.5,3.4,1.5,4.5
			s2.3,1.6,4.1,1.6c1.1,0,2.1-0.3,3-0.8c0.8-0.5,1.5-1.2,1.9-2.1c0.4-0.9,0.7-2,0.7-3.2c0-1.9-0.5-3.4-1.5-4.5
			C372.6,158.7,371.3,158.2,369.6,158.2z M371.3,167.2c-0.4,0.6-1,0.9-1.7,0.9c-0.8,0-1.3-0.3-1.7-0.9s-0.6-1.6-0.6-2.9
			c0-1.3,0.2-2.3,0.6-2.9s1-0.9,1.8-0.9s1.3,0.3,1.7,0.9c0.4,0.6,0.6,1.6,0.6,2.9C371.9,165.6,371.7,166.5,371.3,167.2z"/>
		<path class="st2" d="M387.3,164.4c-0.6-0.6-1.5-1-2.7-1.3c-0.7-0.2-1.2-0.4-1.5-0.5s-0.6-0.3-0.7-0.5s-0.2-0.4-0.2-0.6
			c0-0.3,0.1-0.6,0.4-0.8s0.7-0.3,1.2-0.3c0.9,0,1.9,0.3,2.9,0.9l1.2-1.8c-1.2-0.9-2.6-1.4-4.2-1.4c-0.9,0-1.7,0.1-2.4,0.4
			s-1.2,0.7-1.6,1.2s-0.6,1.1-0.6,1.8c0,0.9,0.3,1.6,0.8,2.2c0.6,0.6,1.4,1,2.6,1.4c0.7,0.2,1.3,0.4,1.6,0.5s0.6,0.3,0.7,0.5
			s0.2,0.4,0.2,0.7c0,0.4-0.2,0.7-0.5,0.9s-0.8,0.3-1.4,0.3c-1.1,0-2.1-0.4-3.1-1.1l-1.5,1.7c0.6,0.5,1.2,0.9,2,1.2s1.7,0.4,2.7,0.4
			c0.9,0,1.8-0.1,2.5-0.4c0.8-0.3,1.4-0.7,1.8-1.3s0.7-1.2,0.7-2C388.2,165.7,387.9,164.9,387.3,164.4z"/>
	</g>
</g>
</svg>
