<?xml version="1.0" encoding="utf-8"?>
<!-- Generator: Adobe Illustrator 24.3.0, SVG Export Plug-In . SVG Version: 6.00 Build 0)  -->
<svg version="1.1" id="Layer_1" xmlns="http://www.w3.org/2000/svg" xmlns:xlink="http://www.w3.org/1999/xlink" x="0px" y="0px"
	 viewBox="0 0 366.6 363.1" style="enable-background:new 0 0 366.6 363.1;" xml:space="preserve">
<style type="text/css">
	.st0{opacity:0.3;}
	.st1{fill:#5F2214;}
	.st2{fill:none;}
	.st3{opacity:0.3;fill:#5F2214;}
</style>
<g class="st0">
	<g>
		<path class="st1" d="M216.7,138.1c-2-1.9-4.6-3.2-6.8-4.7c-0.9-0.6-1.7-0.3-2.6,0.2c-2.6,1.6-4.9,1.3-6.4-0.8s-1.1-4.4,1.1-6.4
			c3.1-2.8,7.9-3.6,11.5-1.4c5.1,3.1,10.1,6.4,15.1,9.7c2.6,1.7,3.1,4.5,1.6,6.7c-1.4,2.1-4,2.5-6.7,0.8c-2-1.2-4-2.5-5.9-3.7
			C217.3,138.4,217,138.2,216.7,138.1z"/>
	</g>
</g>
<g class="st0">
	<g>
		<path class="st1" d="M147.5,138.5c-2,1.3-4,2.5-5.9,3.7c-2.6,1.6-5.2,1.2-6.7-0.8c-1.5-2.2-1-4.9,1.6-6.7
			c4.9-3.3,9.8-6.5,14.9-9.6c3.9-2.3,8.9-1.6,12,1.6c2,2,2.2,4.3,0.6,6.3c-1.6,1.9-3.7,2.3-6.1,0.7c-1.2-0.8-2.2-0.8-3.3,0
			c-2,1.5-4.4,2.6-6.3,4.4C148.1,138.2,147.8,138.4,147.5,138.5z"/>
	</g>
</g>
<g class="st0">
	<g>
		<path class="st1" d="M155.5,146.5c0.3-0.1,0.5-0.3,0.8-0.4c4.3-1.4,6.7-0.8,8.3,1.9c2,3.4,1.6,8.7-0.9,11.2
			c-1.9,1.9-4,1.9-6.4,1.1c-2.9-1.1-4.6-3.2-5-6.3C152,150.8,153.5,148.5,155.5,146.5z"/>
	</g>
</g>
<g class="st0">
	<g>
		<path class="st1" d="M210.7,146.1c0.3,0.1,0.5,0.3,0.8,0.4c1.8,1.9,3.2,3.9,3.1,6.8c-0.1,2.5-1.1,4.6-3.2,6
			c-4.4,3.1-9.2,1.2-10.2-4c-0.2-1.3-0.3-2.7-0.1-4C202,146.9,204.9,143.7,210.7,146.1z"/>
	</g>
</g>
<g class="st0">
	<path class="st1" d="M326.9,192.3c12.1,0,22.6,10.6,25.8,20.9c3.1,9.7,0.5,20.7-7.5,32.6l-0.4,0.6l0.1,0.7c0.6,5,0.7,9.8,0.1,14.2
		c-2.2,19.5-19.2,41.6-46.7,60.7c-0.7-1.9-1.5-3.8-2.5-5.6c25.1-17.8,41.2-38.5,43.2-55.7c0.1-0.4,0.1-0.7,0.1-1
		c0-0.3,0-0.5,0.1-0.7l1.1-6.4l-4.5,4.7c-6.9,7.2-13.7,12.5-17.2,15.1c-1.8,1.3-6.5,4.8-11.9,4.8c-1.1,0-2.2-0.2-3.3-0.5
		c-2.7-0.8-5.1-2.5-7.4-5.3c-6.2-7.5-8.5-18.2-6-28c2.6-10.5,10.5-19.8,20.4-24.4c3.6-1.7,7.2-2.5,10.6-2.5c0.6,0,1.3,0,1.9,0.1
		c6.8,0.8,13.2,5.7,16.9,12.9c0.6,1.2,1.2,2.5,1.8,4.1l1.8,4.4l1.9-4.3c3-6.8,3.7-13.1,1.9-18.8c-2.5-8-10.9-16.7-20.1-16.7
		c-0.8,0-1.6,0.1-2.4,0.2c-0.2,0-0.3,0-0.5,0c-1.4,0-2.7-1.1-3-2.5c-0.3-1.6,0.9-3.2,2.5-3.5C324.6,192.4,325.7,192.3,326.9,192.3
		 M306.5,271.4c2.2,0,5-1.2,8.4-3.7c4.2-3.1,14.7-11.4,22.9-21.9l0.6-0.7l-0.2-0.9c-0.8-4.1-2.1-8.2-3.9-11.6
		c-1.1-2.1-5.1-8.8-12-9.6c-0.7-0.2-1.3-0.2-1.8-0.2c-2.4,0-5.1,0.7-7.8,2c-8.3,3.8-14.9,11.7-17.1,20.4c-2.1,8-0.2,16.7,4.8,22.7
		c1.5,1.8,3,2.9,4.4,3.3C305.3,271.3,305.9,271.4,306.5,271.4 M326.9,190.3c-1.2,0-2.5,0.1-3.8,0.3c-2.7,0.5-4.6,3.1-4.1,5.8
		c0.4,2.4,2.6,4.2,4.9,4.2c0.3,0,0.6,0,0.9-0.1c0.7-0.1,1.4-0.2,2.1-0.2c8,0,15.8,7.6,18.2,15.3c1.8,5.7,0.8,11.6-1.8,17.4
		c-0.6-1.5-1.2-2.9-1.9-4.3c-4.1-7.9-11-13.1-18.5-14c-0.7-0.1-1.4-0.1-2.1-0.1c-3.6,0-7.4,0.9-11.4,2.7
		c-10.5,4.8-18.7,14.6-21.5,25.7c-2.7,10.5-0.2,21.9,6.4,29.8c2.6,3.1,5.3,5,8.4,5.9c1.3,0.4,2.6,0.5,3.8,0.5
		c6.1,0,11.2-3.8,13.2-5.2c3.8-2.8,10.6-8.2,17.4-15.3c-0.1,0.6-0.1,1.2-0.2,1.8c-2,17.3-18.6,38-43.9,55.4c1.8,2.9,3.1,6,4.1,9.3
		c28.8-19.5,47.4-42.8,49.8-63.7c0.6-4.8,0.5-9.8-0.1-14.7c7-10.3,11.6-22.3,7.8-34.3C351,201.2,339.7,190.3,326.9,190.3
		L326.9,190.3z M306.5,269.4c-0.4,0-0.8-0.1-1.1-0.2c-1-0.3-2.2-1.2-3.5-2.7c-4.6-5.5-6.3-13.5-4.4-20.9c2.1-8.2,8.2-15.5,16-19.1
		c2.5-1.2,4.9-1.8,7-1.8c0.4,0,0.8,0,1.3,0.2c4.9,0.5,8.7,4.8,10.7,8.6c1.6,3.2,2.9,7,3.7,11.1c-8.2,10.5-19,18.9-22.5,21.5
		C310.7,268.2,308.3,269.4,306.5,269.4L306.5,269.4z"/>
</g>
<g class="st0">
	<g>
		<path class="st2" d="M138.5,90.8c1.1-1.9,3.2-2.6,5.2-2c2,0.6,3.1,2.3,3.1,4.4c0,1.1-0.3,2.1-0.7,3.1c-4.1,11.7-8.8,23-15.2,33.6
			c-1,1.5-1.5,3.1-1.4,5c0.1,21.8,0.1,43.5,0.2,65.3c0,0.7-0.3,1.4,0.4,2.1c0.5-0.4,0.9-0.9,1.3-1.4c2.4-2.9,5-5.6,8-7.9
			c2.1-1.6,4.6-1.4,6.2,0.4c1.7,1.8,1.6,4.4-0.2,6.4c-0.5,0.6-1.1,1.1-1.7,1.6c-4.7,4.1-8.4,8.8-11.2,14.2
			c-5.6,11-6.4,22.6-4.5,34.5c0.2,1.1,0.9,1.6,1.8,1.9c2.4,0.7,4.7,1.4,7,2.1c4.9,1.4,9.5,0.7,13.8-2.3c3-2,5.9-4,8.8-6.1
			c3-2.1,6.2-3.4,9.9-3.6c2.6-0.1,5-0.9,6.7-3.1c1.3-1.7,1.2-2.1-0.8-2.8c-6.9-2.6-11.6-7.3-13-14.6c-1.7-7.8,1.1-14.2,9.5-16.1
			c7-1.5,14.2-1.5,21.2-0.1c8.7,1.8,11.8,8.5,9.8,16.9c-1.7,6.9-6.3,11.4-12.9,13.9c-1.9,0.7-2,1.1-0.7,2.8c1.6,2.1,3.9,3,6.5,3.1
			c4,0.2,7.4,1.7,10.6,4c2.9,2.1,5.9,4.1,8.8,6.1c3.6,2.5,7.6,3.6,11.9,2.3c2.8-0.8,5.6-1.7,8.4-2.5c1.2-0.3,1.6-1.1,1.7-2.3
			c0.1-1.8,0.4-3.6,0.5-5.3c1.2-13-1.5-25-9.5-35.6c-2.3-3-4.9-5.7-7.8-8.2c-2.5-2.2-2.8-5-0.9-7c1.8-2,4.4-2,7,0.2
			c1.3,1.2,2.6,2.4,3.9,3.7c1.6,1.8,3.1,3.5,4.7,5.2c0.5-0.5,0.4-0.9,0.4-1.3c0.1-22.2,0.1-44.6,0.2-66.8c0-1.3-0.3-2.5-1-3.6
			c-6.1-10-10.7-20.7-14.7-31.7c-0.6-1.8-1.5-3.6-1.6-6.2c0-2.6,1.8-4.5,4.4-4.4c2.3,0,3.7,1.2,4.8,4.4c2.7,8.1,6,15.9,9.8,23.6
			c3.7,7.4,7.9,14.7,13.4,21c0.8,1,1.5,1.7,2.4-0.1c4.9-9.4,11-18.1,16.8-27c2.7-4.2,1.8-7.4-2.9-9.2c-13.3-5-26.5-10-39.7-15
			c-5.1-2-9.5-1.2-13.1,2.9c-2.1,2.4-4.4,2.8-7.3,2c-5.6-1.6-11.4-2.4-17.2-2.8c-10.6-0.6-21,0-31.3,2.8c-2.9,0.8-5.1,0.3-7.1-2
			c-3.7-4.2-8.2-4.9-13.4-2.9c-13.1,5-26.3,9.9-39.5,14.9c-4.8,1.8-5.8,5-3.1,9.2c5.8,9,12,17.7,16.9,27.2c0.8,1.4,1.4,1.2,2.2,0.2
			c1.8-2.3,3.7-4.5,5.3-7c7.6-11.5,13.2-24.2,17.8-37.3C137.7,92.6,138,91.6,138.5,90.8z"/>
		<path class="st2" d="M195.3,251.5c-3.3-0.3-6.6-0.7-8.9-2.8c-2.7-2.5-4.8-2.5-7.6,0c-2.4,2.1-5.7,2.6-9.2,2.8
			C176.9,257.5,190.2,256.7,195.3,251.5z"/>
		<path class="st2" d="M81.4,335.6c4.1,1.4,9.7-3.5,11.3-5.3c1.3-1.5,3.3-1.9,5.1-1.2c1.7,0.7,2.8,2.5,2.7,4.4
			c0,0.8-0.2,8.4,6.7,10.7c7.2,2.4,13.9-6.5,14-6.6c0.8-1.2,2.2-1.9,3.6-1.9c0.5,0,1,0,1.5,0.2c1.8,0.6,3.1,2.4,3,4.4
			c0,0.1-0.2,11.2,6,13.3c5.5,1.9,11-1.9,12.9-3.5c4.8-16.5-6.1-34.7-24.8-40.7c-16.7-5.6-34.1,0-42.1,12.7
			c-0.5,0.9-1.1,1.8-1.5,2.7c0,0.1,0,0.1-0.1,0.2c-0.2,0.4-0.4,0.8-0.6,1.3c-0.2,0.5-0.4,1-0.6,1.5c-0.1,0.5-0.3,2.2,0,4
			c0.1,0.3,0.1,0.7,0.2,0.9l0,0C79.4,334.7,80.4,335.3,81.4,335.6z"/>
		<path class="st2" d="M222.2,322.8c-5,7.5-6.5,16.1-4.4,24.2c0.4,1,2.9,6,6.6,5c4.2-1.1,6.2-8.3,6.5-10.7c0.3-1.9,1.7-3.4,3.6-3.8
			c1.9-0.3,3.8,0.5,4.8,2.2c0.4,0.7,4.5,7.1,11.5,5.2c7.3-2,7.9-13.2,7.9-13.3c0.1-2,1.5-3.7,3.4-4.2c2-0.5,4,0.3,5,2
			c0.1,0.1,6,9.4,12.4,7.7c5.6-1.5,8-7.7,8.7-10c-2.4-7.7-7.9-14-15.7-17.9c-8.3-4.1-18.1-5-27.6-2.4
			C235.3,309.3,227.3,315,222.2,322.8z"/>
		<path class="st2" d="M214.7,262.7c-3.3-1.4-6-3.5-8.9-5.5c-1.1-0.8-1.8-0.6-2.8,0.2c-12.3,10.1-28.7,10.1-41.1,0
			c-0.5-0.3-0.9-0.7-1.6-0.8c-0.3,0.1-0.6,0.3-1,0.5c-2.9,2-5.7,4.2-9.1,5.5c-1.3,0.6-0.6,1.3-0.1,2c3.4,4.8,8,8.1,13.3,10.3
			c4.9,2.1,10,4.1,14.2,7.3c3.6,2.8,6.6,3.4,9.8,0c0.3-0.4,0.9-0.6,1.4-0.9c5-3.2,10.6-5.2,15.9-7.8c4.2-2.1,7.7-5,10.3-8.8
			C215.5,264,216.1,263.2,214.7,262.7z"/>
		<path class="st2" d="M145.2,312.1L145.2,312.1c0.8-0.7,1.4-1.2,1.8-1.8c1.3-1.9,0.6-4.3-0.7-8.1c-0.3-0.8-0.5-1.6-0.8-2.4
			c-0.5-1.5-0.8-2.7-0.9-3.9c-0.6-6.9,2.6-12.2,9.5-15.4c-6-3.5-10.7-8.5-14.1-14.8c-0.5-1-1.2-1.5-2.4-1.8
			c-4.7-1.3-9.2-2.7-13.9-4.1c-4.3,12.6-9.2,25.3-14.4,38.1c5.5-0.1,11.2,0.7,16.9,2.6C133.7,303,140.1,307,145.2,312.1z"/>
		<path class="st3" d="M78.6,327.8c0.2-0.5,0.4-1,0.6-1.5C79,326.8,78.8,327.3,78.6,327.8z"/>
		<path class="st3" d="M79.7,325c0-0.1,0-0.1,0.1-0.2C79.8,324.9,79.8,325,79.7,325z"/>
		<path class="st3" d="M123.3,259.7c0.1,0,0.3,0.1,0.4,0.1c0,0,0,0,0,0C123.6,259.8,123.5,259.7,123.3,259.7z"/>
		<path class="st1" d="M79.2,326.3c0.2-0.4,0.4-0.9,0.6-1.3C79.5,325.4,79.4,325.9,79.2,326.3z"/>
		<path class="st1" d="M79.8,324.9c0.5-0.9,1-1.9,1.5-2.7C80.8,323,80.3,323.9,79.8,324.9z"/>
		<path class="st1" d="M78.6,331.8c0.1,0.3,0.1,0.7,0.2,0.9l0,0C78.7,332.5,78.7,332.1,78.6,331.8z"/>
	</g>
	<g>
		<path class="st2" d="M123.3,259.7c0.1,0,0.3,0.1,0.4,0.1c0,0,0,0,0,0C123.6,259.8,123.5,259.7,123.3,259.7z"/>
		<path class="st2" d="M140,265.7c-0.5-1-1.2-1.5-2.4-1.8c-4.7-1.3-9.2-2.7-13.9-4.1c-4.3,12.6-9.2,25.3-14.4,38.1
			c5.5-0.1,11.2,0.7,16.9,2.6c7.5,2.5,13.9,6.5,19,11.6l0.1-0.1c0.7-0.6,1.3-1.1,1.7-1.7c1.3-1.9,0.6-4.3-0.7-8.1
			c-0.3-0.8-0.5-1.6-0.8-2.4c-0.5-1.5-0.8-2.7-0.9-3.9c-0.6-6.9,2.6-12.2,9.5-15.4C148.1,277,143.4,272,140,265.7z"/>
		<path class="st2" d="M218.6,348.5C218.6,348.5,218.6,348.6,218.6,348.5c0.1,0.2,0.2,0.3,0.2,0.4c0,0,0.1,0.1,0.1,0.1
			c0.1,0.1,0.2,0.3,0.3,0.4c0.1,0.1,0.1,0.2,0.2,0.3c0,0.1,0.1,0.1,0.1,0.2c0.1,0.1,0.2,0.2,0.2,0.3c0,0.1,0.1,0.1,0.1,0.2
			c0.1,0.1,0.2,0.2,0.3,0.3c0,0,0,0,0.1,0.1c0.1,0.1,0.3,0.3,0.4,0.4c0,0,0.1,0.1,0.1,0.1c0.1,0.1,0.2,0.2,0.4,0.3
			c0,0,0.1,0.1,0.1,0.1c0.1,0.1,0.3,0.1,0.4,0.2c0,0,0.1,0,0.1,0.1c0.2,0.1,0.4,0.1,0.5,0.2c0,0,0.1,0,0.1,0c0.2,0,0.3,0.1,0.5,0.1
			c0.1,0,0.1,0,0.2,0c0.1,0,0.3,0,0.4,0c0.1,0,0.1,0,0.2,0c0.2,0,0.4-0.1,0.6-0.1c0.2-0.1,0.5-0.1,0.7-0.2c0,0,0.1,0,0.1-0.1
			c0.2-0.1,0.4-0.2,0.6-0.4c0,0,0.1,0,0.1-0.1c0.2-0.1,0.4-0.3,0.5-0.4c0,0,0.1-0.1,0.1-0.1c0.2-0.2,0.4-0.3,0.5-0.5
			c0,0,0.1-0.1,0.1-0.1c0.1-0.2,0.3-0.3,0.4-0.5c0,0,0.1-0.1,0.1-0.1c0.1-0.2,0.3-0.4,0.4-0.6c0-0.1,0.1-0.1,0.1-0.2
			c0.1-0.2,0.2-0.4,0.3-0.6c0-0.1,0.1-0.2,0.1-0.3c0.1-0.2,0.2-0.3,0.3-0.5c0-0.1,0.1-0.2,0.1-0.3c0.1-0.2,0.2-0.4,0.2-0.5
			c0.1-0.1,0.1-0.3,0.2-0.4c0-0.1,0.1-0.2,0.1-0.3c0-0.1,0.1-0.3,0.1-0.4l0,0c0.6-1.6,0.9-3.1,1-4c0.3-1.9,1.7-3.4,3.6-3.8
			c1.9-0.3,3.8,0.5,4.8,2.2c0.1,0.2,0.7,1.1,1.7,2.1c0.2,0.2,0.5,0.5,0.7,0.7c0,0,0,0,0.1,0.1c0.1,0.1,0.2,0.2,0.3,0.3
			c0.1,0.1,0.2,0.2,0.3,0.2c0.1,0.1,0.2,0.2,0.3,0.2c0.2,0.1,0.4,0.3,0.6,0.4c0.1,0.1,0.2,0.1,0.3,0.2c0.2,0.1,0.4,0.2,0.6,0.3
			c0.1,0,0.1,0.1,0.2,0.1c0.3,0.1,0.5,0.2,0.8,0.3c0.1,0,0.1,0.1,0.2,0.1c0.3,0.1,0.5,0.2,0.8,0.3c0,0,0.1,0,0.1,0
			c0.3,0.1,0.6,0.1,0.9,0.2c0.1,0,0.2,0,0.2,0c0.3,0,0.6,0.1,1,0.1c0,0,0,0,0,0c0.3,0,0.7,0,1.1-0.1c0.1,0,0.2,0,0.3,0
			c0.4-0.1,0.8-0.1,1.1-0.2c0.3-0.1,0.5-0.2,0.8-0.3c0.1,0,0.2-0.1,0.2-0.1c0.2-0.1,0.3-0.1,0.5-0.2c0.1,0,0.2-0.1,0.2-0.1
			c0.2-0.1,0.3-0.2,0.5-0.3c0.1,0,0.1-0.1,0.2-0.1c0.2-0.1,0.4-0.3,0.6-0.4c0,0,0.1-0.1,0.1-0.1c0.2-0.1,0.3-0.3,0.4-0.4
			c0.1-0.1,0.1-0.1,0.2-0.2c0.1-0.1,0.2-0.2,0.3-0.4c0.1-0.1,0.1-0.1,0.2-0.2c0.1-0.2,0.3-0.3,0.4-0.5c0,0,0.1-0.1,0.1-0.1
			c0.1-0.2,0.3-0.4,0.4-0.6c0-0.1,0.1-0.1,0.1-0.2c0.1-0.2,0.2-0.3,0.3-0.5c0-0.1,0.1-0.1,0.1-0.2c0.1-0.2,0.2-0.3,0.3-0.5
			c0-0.1,0.1-0.1,0.1-0.2c0.2-0.5,0.4-0.9,0.6-1.4c0,0,0-0.1,0-0.1c0.1-0.2,0.1-0.4,0.2-0.6c0,0,0-0.1,0-0.1
			c0.1-0.2,0.1-0.4,0.2-0.6c0,0,0,0,0,0c0.1-0.5,0.3-0.9,0.4-1.4c0.5-2,0.5-3.5,0.5-3.5c0.1-2,1.5-3.7,3.4-4.2c2-0.5,4,0.3,5,2
			c0,0,0.3,0.5,0.8,1.2l0,0c0.1,0.1,0.2,0.2,0.3,0.4c0,0,0,0.1,0.1,0.1c0.1,0.1,0.2,0.2,0.3,0.3c0,0,0.1,0.1,0.1,0.1
			c0.1,0.1,0.2,0.3,0.3,0.4c0,0,0,0,0,0c0.3,0.3,0.6,0.6,0.9,1c0,0,0,0,0,0c1.8,1.9,4.3,3.9,7,4.3c0.8,0.1,1.7,0.1,2.6-0.1
			c5.6-1.5,8-7.7,8.7-10c-2.4-7.7-7.9-14-15.7-17.9c-8.3-4.1-18.1-5-27.6-2.4c-9.6,2.5-17.6,8.2-22.7,16c-5,7.5-6.5,16.1-4.4,24.2
			c0.1,0.2,0.3,0.7,0.6,1.2l0,0C218.4,348.3,218.5,348.4,218.6,348.5z"/>
		<path class="st2" d="M214.7,262.7c-3.3-1.4-6-3.5-8.9-5.5c-1.1-0.8-1.8-0.6-2.8,0.2c-12.3,10.1-28.7,10.1-41.1,0
			c-0.5-0.3-0.9-0.7-1.6-0.8c-0.3,0.1-0.6,0.3-1,0.5c-2.9,2-5.7,4.2-9.1,5.5c-1.3,0.6-0.6,1.3-0.1,2c3.4,4.8,8,8.1,13.3,10.3
			c4.9,2.1,10,4.1,14.2,7.3c3.6,2.8,6.6,3.4,9.8,0c0.3-0.4,0.9-0.6,1.4-0.9c5-3.2,10.6-5.2,15.9-7.8c4.2-2.1,7.7-5,10.3-8.8
			C215.5,264,216.1,263.2,214.7,262.7z"/>
		<path class="st2" d="M194.1,352.1c5.1-0.5,10.2-1.2,15.3-2.1c-0.1-0.1-0.1-0.2-0.1-0.4c-2.9-10.6-1-21.9,5.4-31.7
			c6.3-9.6,16.1-16.6,27.8-19.8c4.1-1.1,8.3-1.6,12.5-1.7c-4.9-12.3-9.6-24.3-13.7-36.3c-4.6,1.3-9.1,3-13.8,4
			c-1.2,0.3-2,0.8-2.6,1.9c-4.2,7.8-10.2,13.6-18.3,16.9c-1.8,0.7-3.6,1.6-5.4,2.4c3.7,3.7,5.4,8.3,4.7,12.8v0.2
			c-0.2,1-0.6,4-0.1,4.5c0.1,0,0.2,0,0.3,0c0.1,0,0.3,0,0.4,0c0.2,0,0.4,0,0.6,0h0.2c1.9,0,3.6,1.1,4.7,2.9c1.3,2.3,1.4,5.3,0.3,7.5
			c-1.9,3.7-5.8,5.4-8.6,6.7l-16.6,7.5c-1.1,0.5-2.1,1-2.5,1.7c-0.3,0.7-0.1,1.9,0.1,2.8c0.2,0.7,0.4,1.4,0.6,2.1
			c0.6,2,1.2,4.1,1.2,6.4c0.1,3.9-1.8,7.4-4.7,8.8c-1,0.6-2.2,0.8-3.5,0.8c-1.6,0-3.2-0.4-4.7-0.8c-0.9-0.2-1.6-0.4-2.4-0.5
			c-0.8-0.1-1.6-0.2-2.6-0.2c-1.1,0-2.1,0-3.2,0.1c-1.1,0-2.2,0.1-3.4,0.1c-0.4,0-0.9,0-1.3,0c-1,0-1.9-0.2-2.9-0.4
			c-0.2,1.2-0.4,2.4-0.8,3.6C169,353.3,181.3,353.3,194.1,352.1z"/>
		<path class="st2" d="M222.6,88.7c2.3,0,3.7,1.2,4.8,4.4c2.7,8.1,6,15.9,9.8,23.6c3.7,7.4,7.9,14.7,13.4,21c0.8,1,1.5,1.7,2.4-0.1
			c4.9-9.4,11-18.1,16.8-27c2.7-4.2,1.8-7.4-2.9-9.2c-13.3-5-26.5-10-39.7-15c-5.1-2-9.5-1.2-13.1,2.9c-2.1,2.4-4.4,2.8-7.3,2
			c-5.6-1.6-11.4-2.4-17.2-2.8c-10.6-0.6-21,0-31.3,2.8c-2.9,0.8-5.1,0.3-7.1-2c-3.7-4.2-8.2-4.9-13.4-2.9
			c-13.1,5-26.3,9.9-39.5,14.9c-4.8,1.8-5.8,5-3.1,9.2c5.8,9,12,17.7,16.9,27.2c0.8,1.4,1.4,1.2,2.2,0.2c1.8-2.3,3.7-4.5,5.3-7
			c7.6-11.5,13.2-24.2,17.8-37.3c0.3-1,0.6-2,1.1-2.8c1.1-1.9,3.2-2.6,5.2-2c2,0.6,3.1,2.3,3.1,4.4c0,1.1-0.3,2.1-0.7,3.1
			c-4.1,11.7-8.8,23-15.2,33.6c-1,1.5-1.5,3.1-1.4,5c0.1,21.8,0.1,43.5,0.2,65.3c0,0.7-0.3,1.4,0.4,2.1c0.5-0.4,0.9-0.9,1.3-1.4
			c2.4-2.9,5-5.6,8-7.9c2.1-1.6,4.6-1.4,6.2,0.4c1.7,1.8,1.6,4.4-0.2,6.4c-0.5,0.6-1.1,1.1-1.7,1.6c-4.7,4.1-8.4,8.8-11.2,14.2
			c-5.6,11-6.4,22.6-4.5,34.5c0.2,1.1,0.9,1.6,1.8,1.9c2.4,0.7,4.7,1.4,7,2.1c4.9,1.4,9.5,0.7,13.8-2.3c3-2,5.9-4,8.8-6.1
			c3-2.1,6.2-3.4,9.9-3.6c2.6-0.1,5-0.9,6.7-3.1c1.3-1.7,1.2-2.1-0.8-2.8c-6.9-2.6-11.6-7.3-13-14.6c-1.7-7.8,1.1-14.2,9.5-16.1
			c7-1.5,14.2-1.5,21.2-0.1c8.7,1.8,11.8,8.5,9.8,16.9c-1.7,6.9-6.3,11.4-12.9,13.9c-1.9,0.7-2,1.1-0.7,2.8c1.6,2.1,3.9,3,6.5,3.1
			c4,0.2,7.4,1.7,10.6,4c2.9,2.1,5.9,4.1,8.8,6.1c3.6,2.5,7.6,3.6,11.9,2.3c2.8-0.8,5.6-1.7,8.4-2.5c1.2-0.3,1.6-1.1,1.7-2.3
			c0.1-1.8,0.4-3.6,0.5-5.3c1.2-13-1.5-25-9.5-35.6c-2.3-3-4.9-5.7-7.8-8.2c-2.5-2.2-2.8-5-0.9-7c1.8-2,4.4-2,7,0.2
			c1.3,1.2,2.6,2.4,3.9,3.7c1.6,1.8,3.1,3.5,4.7,5.2c0.5-0.5,0.4-0.9,0.4-1.3c0.1-22.2,0.1-44.6,0.2-66.8c0-1.3-0.3-2.5-1-3.6
			c-6.1-10-10.7-20.7-14.7-31.7c-0.6-1.8-1.5-3.6-1.6-6.2C218.2,90.5,220,88.6,222.6,88.7z"/>
		<path class="st2" d="M195.3,251.5c-3.3-0.3-6.6-0.7-8.9-2.8c-2.7-2.5-4.8-2.5-7.6,0c-2.4,2.1-5.7,2.6-9.2,2.8
			C176.9,257.5,190.2,256.7,195.3,251.5z"/>
		<path class="st3" d="M146.5,351.4c0,0,0.1-0.1,0.1-0.1C146.6,351.3,146.6,351.3,146.5,351.4z"/>
		<path class="st3" d="M145.9,351.8c0.1,0,0.1-0.1,0.2-0.1C146,351.7,145.9,351.7,145.9,351.8z"/>
		<path class="st3" d="M145,352.3c0.1-0.1,0.3-0.2,0.4-0.2C145.3,352.1,145.2,352.2,145,352.3z"/>
		<path class="st3" d="M147.1,351C147.1,350.9,147.1,350.9,147.1,351C147.1,350.9,147.1,350.9,147.1,351z"/>
		<path class="st3" d="M268.3,331C268.3,331,268.2,331,268.3,331C268.2,331,268.3,331,268.3,331z"/>
		<path class="st3" d="M269,331.9C269,331.9,269,331.9,269,331.9C269,331.9,269,331.9,269,331.9z"/>
		<path class="st3" d="M269.9,332.9C269.9,332.9,269.9,332.9,269.9,332.9C269.9,332.9,269.9,332.9,269.9,332.9z"/>
		<path class="st3" d="M268.6,331.5c0,0-0.1-0.1-0.1-0.1C268.6,331.4,268.6,331.4,268.6,331.5z"/>
		<path class="st3" d="M136.6,353.9c0.2,0,0.4,0.1,0.7,0.1C137.1,354,136.8,354,136.6,353.9z"/>
		<path class="st3" d="M138.6,354.1c0.2,0,0.4,0,0.6,0C139,354.1,138.8,354.1,138.6,354.1z"/>
		<path class="st3" d="M134.2,353.1C134.2,353.1,134.3,353.1,134.2,353.1C134.3,353.1,134.2,353.1,134.2,353.1z"/>
		<path class="st3" d="M135.3,353.6c0.3,0.1,0.7,0.2,1,0.3C136,353.8,135.6,353.7,135.3,353.6z"/>
		<path class="st3" d="M139.6,354.1c0.2,0,0.4,0,0.6-0.1C140,354,139.8,354,139.6,354.1z"/>
		<path class="st3" d="M133.3,352.5C133.3,352.5,133.3,352.5,133.3,352.5C133.3,352.5,133.3,352.5,133.3,352.5z"/>
		<path class="st3" d="M142.3,353.4c0.2-0.1,0.4-0.1,0.6-0.2C142.7,353.3,142.5,353.4,142.3,353.4z"/>
		<path class="st3" d="M143.2,353.1c0.2-0.1,0.4-0.2,0.6-0.2C143.5,353,143.4,353.1,143.2,353.1z"/>
		<path class="st3" d="M141.4,353.7c0.2,0,0.4-0.1,0.6-0.2C141.8,353.6,141.6,353.7,141.4,353.7z"/>
		<path class="st3" d="M140.5,353.9c0.2,0,0.4-0.1,0.6-0.1C140.9,353.8,140.7,353.9,140.5,353.9z"/>
		<path class="st3" d="M144,352.8c0.2-0.1,0.4-0.2,0.6-0.3C144.4,352.6,144.2,352.7,144,352.8z"/>
		<path class="st3" d="M251.8,344.5c-0.1,0-0.1,0.1-0.2,0.1C251.6,344.6,251.7,344.6,251.8,344.5z"/>
		<path class="st3" d="M250.8,344.9c-0.4,0.1-0.8,0.2-1.1,0.2C250,345.1,250.4,345,250.8,344.9z"/>
		<path class="st3" d="M252.5,344.2c-0.1,0-0.2,0.1-0.2,0.1C252.4,344.3,252.4,344.2,252.5,344.2z"/>
		<path class="st3" d="M253.2,343.8c-0.1,0-0.1,0.1-0.2,0.1C253.1,343.9,253.1,343.8,253.2,343.8z"/>
		<path class="st3" d="M246,345c-0.3-0.1-0.5-0.2-0.8-0.3C245.5,344.8,245.8,344.9,246,345z"/>
		<path class="st3" d="M253.9,343.2c0,0-0.1,0.1-0.1,0.1C253.8,343.3,253.9,343.3,253.9,343.2z"/>
		<path class="st3" d="M247.1,345.2c-0.3,0-0.6-0.1-0.9-0.2C246.4,345.1,246.7,345.1,247.1,345.2z"/>
		<path class="st3" d="M249.4,345.2c-0.4,0-0.7,0.1-1.1,0.1C248.7,345.2,249,345.2,249.4,345.2z"/>
		<path class="st3" d="M248.3,345.2c-0.3,0-0.7,0-1-0.1C247.6,345.2,247.9,345.3,248.3,345.2z"/>
		<path class="st3" d="M257.8,336.5C257.8,336.5,257.8,336.5,257.8,336.5C257.8,336.5,257.8,336.5,257.8,336.5z"/>
		<path class="st3" d="M256.4,340c0,0.1-0.1,0.1-0.1,0.2C256.3,340.2,256.4,340.1,256.4,340z"/>
		<path class="st3" d="M245,344.6c-0.3-0.1-0.5-0.2-0.8-0.3C244.5,344.4,244.7,344.5,245,344.6z"/>
		<path class="st3" d="M256.7,339.4c0,0.1-0.1,0.1-0.1,0.2C256.7,339.5,256.7,339.4,256.7,339.4z"/>
		<path class="st3" d="M257.6,337.2c0,0,0,0.1,0,0.1C257.6,337.3,257.6,337.2,257.6,337.2z"/>
		<path class="st3" d="M256,340.7c0,0.1-0.1,0.1-0.1,0.2C255.9,340.8,256,340.8,256,340.7z"/>
		<path class="st3" d="M254.5,342.7c-0.1,0.1-0.1,0.1-0.2,0.2C254.4,342.8,254.5,342.7,254.5,342.7z"/>
		<path class="st3" d="M255,342.1c-0.1,0.1-0.1,0.1-0.2,0.2C254.9,342.2,255,342.2,255,342.1z"/>
		<path class="st3" d="M255.5,341.5c0,0-0.1,0.1-0.1,0.1C255.4,341.6,255.5,341.5,255.5,341.5z"/>
		<path class="st3" d="M257.4,337.9c0,0,0,0.1,0,0.1C257.3,338,257.3,337.9,257.4,337.9z"/>
		<path class="st3" d="M101,337.5c0.1,0.2,0.1,0.4,0.2,0.5C101.1,337.9,101.1,337.7,101,337.5z"/>
		<path class="st3" d="M101.3,338.3c0.1,0.2,0.2,0.5,0.3,0.7C101.5,338.8,101.4,338.6,101.3,338.3z"/>
		<path class="st3" d="M100.8,336.8c0,0.2,0.1,0.3,0.1,0.5C100.9,337.1,100.9,336.9,100.8,336.8z"/>
		<path class="st3" d="M100.7,336c0,0.1,0.1,0.3,0.1,0.4C100.7,336.3,100.7,336.2,100.7,336z"/>
		<path class="st3" d="M101.6,339.2c0.1,0.3,0.3,0.6,0.4,0.8C101.9,339.7,101.7,339.4,101.6,339.2z"/>
		<path class="st3" d="M102.1,340.1c0.1,0.2,0.3,0.4,0.4,0.6C102.4,340.6,102.3,340.4,102.1,340.1z"/>
		<path class="st3" d="M104.2,342.5c0.2,0.1,0.4,0.3,0.5,0.4C104.5,342.8,104.3,342.7,104.2,342.5z"/>
		<path class="st3" d="M105,343.2c0.2,0.1,0.4,0.3,0.7,0.4C105.5,343.4,105.3,343.3,105,343.2z"/>
		<path class="st3" d="M102.7,341c0.1,0.2,0.3,0.3,0.4,0.5C103,341.4,102.9,341.2,102.7,341z"/>
		<path class="st3" d="M106.1,343.7c0.4,0.2,0.7,0.3,1.1,0.5C106.8,344.1,106.4,343.9,106.1,343.7z"/>
		<path class="st3" d="M90.7,332.2C90.7,332.2,90.7,332.2,90.7,332.2C90.7,332.2,90.7,332.2,90.7,332.2z"/>
		<path class="st3" d="M92.4,330.6c0.1-0.1,0.2-0.2,0.3-0.3C92.6,330.4,92.5,330.5,92.4,330.6z"/>
		<path class="st3" d="M100.6,335.4c0,0.1,0,0.3,0.1,0.4C100.6,335.6,100.6,335.5,100.6,335.4z"/>
		<path class="st3" d="M91.1,331.8c0.1,0,0.1-0.1,0.2-0.1C91.2,331.8,91.2,331.8,91.1,331.8z"/>
		<path class="st3" d="M100.5,334.8c0,0.1,0,0.2,0,0.4C100.6,335,100.6,334.9,100.5,334.8z"/>
		<path class="st3" d="M91.6,331.4c0.1-0.1,0.1-0.1,0.2-0.2C91.7,331.3,91.6,331.4,91.6,331.4z"/>
		<path class="st3" d="M115.2,342.9C115.3,342.9,115.3,342.9,115.2,342.9C115.3,342.9,115.3,342.9,115.2,342.9z"/>
		<path class="st3" d="M115.8,342.6C115.8,342.6,115.8,342.6,115.8,342.6C115.8,342.6,115.8,342.6,115.8,342.6z"/>
		<path class="st3" d="M116.3,342.2C116.3,342.2,116.3,342.2,116.3,342.2C116.3,342.2,116.3,342.2,116.3,342.2z"/>
		<path class="st3" d="M131.8,350.7C131.8,350.8,131.8,350.8,131.8,350.7C131.8,350.8,131.8,350.8,131.8,350.7z"/>
		<path class="st3" d="M114.7,343.3C114.7,343.2,114.7,343.2,114.7,343.3C114.7,343.2,114.7,343.2,114.7,343.3z"/>
		<path class="st3" d="M130.7,348.7C130.8,348.7,130.8,348.7,130.7,348.7C130.8,348.7,130.8,348.7,130.7,348.7z"/>
		<path class="st3" d="M114.1,343.6c0,0,0.1,0,0.1-0.1C114.1,343.5,114.1,343.5,114.1,343.6z"/>
		<path class="st3" d="M131.2,349.7C131.2,349.7,131.2,349.8,131.2,349.7C131.2,349.8,131.2,349.7,131.2,349.7z"/>
		<path class="st3" d="M130.4,347.6C130.4,347.6,130.4,347.6,130.4,347.6C130.4,347.6,130.4,347.6,130.4,347.6z"/>
		<path class="st3" d="M108.1,344.4c0.1,0,0.3,0.1,0.4,0.1C108.4,344.5,108.3,344.5,108.1,344.4z"/>
		<path class="st3" d="M110.2,344.6c0.1,0,0.2,0,0.3,0C110.4,344.6,110.3,344.6,110.2,344.6z"/>
		<path class="st3" d="M108.8,344.6c0.1,0,0.2,0,0.4,0C109.1,344.6,109,344.6,108.8,344.6z"/>
		<path class="st3" d="M107.2,344.2c0.2,0.1,0.4,0.1,0.7,0.2C107.6,344.3,107.4,344.3,107.2,344.2z"/>
		<path class="st3" d="M110.9,344.5c0.1,0,0.2,0,0.3,0C111.1,344.5,111,344.5,110.9,344.5z"/>
		<path class="st3" d="M111.5,344.4c0.1,0,0.2,0,0.2,0C111.7,344.4,111.6,344.4,111.5,344.4z"/>
		<path class="st3" d="M113.4,343.8c0.1,0,0.1,0,0.2-0.1C113.5,343.8,113.5,343.8,113.4,343.8z"/>
		<path class="st3" d="M112.8,344.1c0.1,0,0.1,0,0.2-0.1C112.9,344,112.9,344,112.8,344.1z"/>
		<path class="st3" d="M112.2,344.3c0.1,0,0.1,0,0.2-0.1C112.3,344.2,112.3,344.2,112.2,344.3z"/>
		<path class="st3" d="M228.6,348.1c-0.1,0.2-0.2,0.4-0.3,0.6C228.4,348.5,228.5,348.3,228.6,348.1z"/>
		<path class="st3" d="M228.2,348.9c-0.1,0.2-0.3,0.4-0.4,0.6C227.9,349.3,228,349.1,228.2,348.9z"/>
		<path class="st3" d="M222.4,352c-0.2-0.1-0.4-0.1-0.5-0.2C222.1,351.9,222.2,351.9,222.4,352z"/>
		<path class="st3" d="M109.9,344.6c-0.1,0-0.2,0-0.3,0C109.6,344.6,109.8,344.6,109.9,344.6z"/>
		<path class="st3" d="M227.6,349.6c-0.1,0.2-0.3,0.3-0.4,0.5C227.4,349.9,227.5,349.8,227.6,349.6z"/>
		<path class="st3" d="M103.9,342.3c-0.2-0.1-0.3-0.3-0.5-0.4C103.5,342,103.7,342.1,103.9,342.3z"/>
		<path class="st3" d="M132.5,351.7C132.5,351.7,132.5,351.7,132.5,351.7C132.5,351.7,132.5,351.7,132.5,351.7z"/>
		<path class="st3" d="M221.8,351.7c-0.1-0.1-0.3-0.1-0.4-0.2C221.5,351.6,221.6,351.7,221.8,351.7z"/>
		<path class="st3" d="M218.6,348.6C218.6,348.6,218.6,348.5,218.6,348.6C218.6,348.5,218.6,348.6,218.6,348.6z"/>
		<path class="st3" d="M229,347.3c-0.1,0.2-0.2,0.4-0.3,0.5C228.9,347.6,228.9,347.5,229,347.3z"/>
		<path class="st3" d="M223.6,352.1c-0.1,0-0.3,0-0.4,0C223.3,352.1,223.5,352.1,223.6,352.1z"/>
		<path class="st3" d="M225.8,351.3c-0.2,0.1-0.4,0.2-0.6,0.4C225.4,351.6,225.6,351.5,225.8,351.3z"/>
		<path class="st3" d="M229.4,346.4c-0.1,0.2-0.2,0.4-0.2,0.5C229.3,346.8,229.3,346.6,229.4,346.4z"/>
		<path class="st3" d="M223,352.1c-0.2,0-0.3,0-0.5-0.1C222.7,352,222.8,352.1,223,352.1z"/>
		<path class="st3" d="M225.1,351.8c-0.2,0.1-0.4,0.2-0.7,0.2C224.6,351.9,224.9,351.9,225.1,351.8z"/>
		<path class="st3" d="M224.4,352c-0.2,0.1-0.4,0.1-0.6,0.1C224,352.1,224.2,352.1,224.4,352z"/>
		<path class="st3" d="M227.1,350.2c-0.2,0.2-0.3,0.4-0.5,0.5C226.8,350.6,226.9,350.4,227.1,350.2z"/>
		<path class="st3" d="M226.5,350.9c-0.2,0.1-0.3,0.3-0.5,0.4C226.1,351.1,226.3,351,226.5,350.9z"/>
		<path class="st3" d="M138.3,354.1c-0.2,0-0.4,0-0.6,0C137.8,354.1,138.1,354.1,138.3,354.1z"/>
		<path class="st3" d="M244.1,344.2c-0.2-0.1-0.4-0.2-0.6-0.3C243.7,344,243.9,344.1,244.1,344.2z"/>
		<path class="st3" d="M221.2,351.4c-0.1-0.1-0.2-0.2-0.4-0.3C221,351.3,221.1,351.4,221.2,351.4z"/>
		<path class="st3" d="M241.7,342.6C241.7,342.6,241.7,342.6,241.7,342.6C241.7,342.6,241.7,342.6,241.7,342.6z"/>
		<path class="st3" d="M220.2,350.6c-0.1-0.1-0.2-0.2-0.3-0.3C220,350.4,220.1,350.5,220.2,350.6z"/>
		<path class="st3" d="M243.2,343.7c-0.2-0.1-0.4-0.3-0.6-0.4C242.8,343.5,243,343.6,243.2,343.7z"/>
		<path class="st3" d="M242.4,343.1c-0.1-0.1-0.2-0.2-0.3-0.2C242.2,342.9,242.3,343,242.4,343.1z"/>
		<path class="st3" d="M219.4,349.7c-0.1-0.1-0.1-0.2-0.2-0.3C219.3,349.5,219.3,349.6,219.4,349.7z"/>
		<path class="st3" d="M220.8,351.1c-0.2-0.1-0.3-0.2-0.4-0.4C220.5,350.8,220.6,351,220.8,351.1z"/>
		<path class="st3" d="M92.2,330.8c-0.1,0.1-0.2,0.2-0.2,0.2C92.1,330.9,92.2,330.9,92.2,330.8z"/>
		<path class="st3" d="M218.9,349c0,0-0.1-0.1-0.1-0.1C218.8,348.9,218.9,349,218.9,349z"/>
		<path class="st3" d="M219.8,350.1c-0.1-0.1-0.2-0.2-0.2-0.3C219.6,350,219.7,350.1,219.8,350.1z"/>
		<path class="st3" d="M229.7,345.7c0,0.1-0.1,0.2-0.1,0.3C229.6,345.9,229.7,345.8,229.7,345.7z"/>
		<path class="st1" d="M110.5,344.6c0.1,0,0.2,0,0.4,0C110.7,344.5,110.6,344.6,110.5,344.6z"/>
		<path class="st1" d="M109.2,344.6c0.1,0,0.2,0,0.3,0C109.4,344.6,109.3,344.6,109.2,344.6z"/>
		<path class="st1" d="M219.5,349.9c0-0.1-0.1-0.1-0.1-0.2C219.4,349.8,219.5,349.8,219.5,349.9z"/>
		<path class="st1" d="M267.9,330.6c0.1,0.1,0.2,0.2,0.3,0.4C268.1,330.8,268,330.7,267.9,330.6L267.9,330.6z"/>
		<path class="st1" d="M245.2,344.7c-0.1,0-0.1-0.1-0.2-0.1C245.1,344.7,245.2,344.7,245.2,344.7z"/>
		<path class="st1" d="M241,341.8c0.2,0.2,0.5,0.5,0.7,0.7C241.4,342.3,241.2,342.1,241,341.8z"/>
		<path class="st1" d="M114.7,343.2c0.2-0.1,0.3-0.2,0.5-0.3C115.1,343,114.9,343.1,114.7,343.2z"/>
		<path class="st1" d="M112.4,344.2c0.1,0,0.3-0.1,0.4-0.1C112.7,344.1,112.5,344.2,112.4,344.2z"/>
		<path class="st1" d="M113,344c0.1-0.1,0.3-0.1,0.4-0.2C113.3,343.9,113.1,343.9,113,344z"/>
		<path class="st1" d="M219.2,349.4c-0.1-0.1-0.2-0.3-0.3-0.4C219,349.2,219.1,349.3,219.2,349.4z"/>
		<path class="st1" d="M114.2,343.5c0.2-0.1,0.3-0.2,0.5-0.2C114.5,343.3,114.3,343.4,114.2,343.5z"/>
		<path class="st1" d="M218.8,348.9c-0.1-0.1-0.1-0.2-0.2-0.3C218.7,348.7,218.7,348.8,218.8,348.9z"/>
		<path class="st1" d="M113.6,343.8c0.2-0.1,0.3-0.1,0.5-0.2C113.9,343.6,113.8,343.7,113.6,343.8z"/>
		<path class="st1" d="M111.8,344.4c0.1,0,0.3-0.1,0.4-0.1C112,344.3,111.9,344.3,111.8,344.4z"/>
		<path class="st1" d="M115.3,342.9c0.2-0.1,0.3-0.2,0.5-0.3C115.6,342.7,115.5,342.8,115.3,342.9z"/>
		<path class="st1" d="M229.7,345.7c0-0.1,0.1-0.3,0.1-0.4l0,0C229.8,345.4,229.8,345.6,229.7,345.7z"/>
		<path class="st1" d="M111.1,344.5c0.1,0,0.3-0.1,0.4-0.1C111.4,344.4,111.3,344.5,111.1,344.5z"/>
		<path class="st1" d="M115.8,342.6c0.2-0.1,0.3-0.2,0.5-0.3C116.2,342.3,116,342.5,115.8,342.6z"/>
		<path class="st1" d="M108.5,344.5c0.1,0,0.2,0,0.3,0C108.7,344.5,108.6,344.5,108.5,344.5z"/>
		<path class="st1" d="M100.6,335.1c0,0.1,0,0.2,0,0.2C100.6,335.3,100.6,335.2,100.6,335.1z"/>
		<path class="st1" d="M100.5,334.2c0,0.2,0,0.4,0,0.6C100.5,334.5,100.5,334.3,100.5,334.2z"/>
		<path class="st1" d="M100.8,336.5c0,0.1,0,0.2,0.1,0.3C100.8,336.7,100.8,336.6,100.8,336.5z"/>
		<path class="st1" d="M92.4,330.6c0,0-0.1,0.1-0.1,0.1C92.3,330.7,92.3,330.7,92.4,330.6z"/>
		<path class="st1" d="M100.7,335.8c0,0.1,0,0.2,0,0.3C100.7,335.9,100.7,335.9,100.7,335.8z"/>
		<path class="st1" d="M91.3,331.7c0.1-0.1,0.2-0.2,0.3-0.3C91.5,331.5,91.4,331.6,91.3,331.7z"/>
		<path class="st1" d="M83.4,335.8c2.6-0.2,5.3-2,7.3-3.6C88.8,333.8,86,335.6,83.4,335.8z"/>
		<path class="st1" d="M265.2,343c0.6-0.3,1.1-0.5,1.7-0.8c-0.4-0.3-0.7-0.5-1-0.8C265.6,341.9,265.4,342.4,265.2,343z"/>
		<path class="st1" d="M91.8,331.2c0.1-0.1,0.1-0.1,0.2-0.2C91.9,331.1,91.9,331.2,91.8,331.2z"/>
		<path class="st1" d="M101,337.3c0,0.1,0,0.2,0.1,0.3C101,337.4,101,337.4,101,337.3z"/>
		<path class="st1" d="M90.7,332.2c0.1-0.1,0.3-0.2,0.4-0.3C91,332,90.8,332.1,90.7,332.2z"/>
		<path class="st1" d="M93.1,329.9c-0.1,0.1-0.3,0.2-0.4,0.4C92.8,330.2,93,330,93.1,329.9L93.1,329.9z"/>
		<path class="st1" d="M133.3,352.5c-0.3-0.2-0.5-0.5-0.8-0.7C132.8,352,133,352.2,133.3,352.5z"/>
		<path class="st1" d="M138.6,354.1c-0.1,0-0.3,0-0.4,0C138.4,354.1,138.5,354.1,138.6,354.1z"/>
		<path class="st1" d="M104.7,342.9c0.1,0.1,0.2,0.2,0.3,0.2C104.9,343.1,104.8,343,104.7,342.9z"/>
		<path class="st1" d="M105.7,343.6c0.1,0.1,0.2,0.1,0.3,0.2C105.9,343.7,105.8,343.6,105.7,343.6z"/>
		<path class="st1" d="M269.9,332.9c1.8,1.9,4.3,3.9,7,4.3C274.2,336.8,271.7,334.8,269.9,332.9z"/>
		<path class="st1" d="M218.4,348.2L218.4,348.2c0.1,0.1,0.1,0.2,0.2,0.3C218.5,348.4,218.4,348.3,218.4,348.2z"/>
		<path class="st1" d="M107.9,344.4c0.1,0,0.2,0,0.3,0.1C108,344.4,108,344.4,107.9,344.4z"/>
		<path class="st1" d="M110.2,344.6c-0.1,0-0.2,0-0.4,0C110,344.6,110.1,344.6,110.2,344.6z"/>
		<path class="st1" d="M101.6,339c0,0,0,0.1,0,0.1C101.6,339.1,101.6,339.1,101.6,339z"/>
		<path class="st1" d="M102,340c0,0.1,0.1,0.1,0.1,0.2C102.1,340.1,102.1,340,102,340z"/>
		<path class="st1" d="M103.9,342.3c0.1,0.1,0.2,0.2,0.3,0.3C104.1,342.5,104,342.4,103.9,342.3z"/>
		<path class="st1" d="M101.2,338.1c0,0.1,0.1,0.2,0.1,0.3C101.3,338.3,101.2,338.2,101.2,338.1z"/>
		<path class="st1" d="M103.4,341.8c-0.1-0.1-0.2-0.2-0.3-0.3C103.2,341.6,103.3,341.7,103.4,341.8z"/>
		<path class="st1" d="M102.5,340.8c0.1,0.1,0.1,0.2,0.2,0.3C102.7,341,102.6,340.9,102.5,340.8z"/>
		<path class="st1" d="M116.8,341.9c-0.2,0.1-0.3,0.2-0.5,0.4C116.5,342.1,116.7,342,116.8,341.9L116.8,341.9z"/>
		<path class="st1" d="M228.8,347.8c0,0.1-0.1,0.2-0.1,0.3C228.7,348,228.7,347.9,228.8,347.8z"/>
		<path class="st1" d="M256.7,339.5c-0.1,0.2-0.2,0.3-0.3,0.5C256.5,339.9,256.6,339.7,256.7,339.5z"/>
		<path class="st1" d="M228.3,348.6c0,0.1-0.1,0.1-0.1,0.2C228.2,348.8,228.3,348.7,228.3,348.6z"/>
		<path class="st1" d="M256.3,340.2c-0.1,0.2-0.2,0.3-0.3,0.5C256.1,340.6,256.2,340.4,256.3,340.2z"/>
		<path class="st1" d="M257.3,338c-0.2,0.5-0.4,0.9-0.6,1.4C257,338.9,257.1,338.5,257.3,338z"/>
		<path class="st1" d="M229.2,347c0,0.1-0.1,0.2-0.1,0.3C229.1,347.2,229.1,347.1,229.2,347z"/>
		<path class="st1" d="M255.4,341.6c-0.1,0.2-0.2,0.3-0.4,0.5C255.2,341.9,255.3,341.8,255.4,341.6z"/>
		<path class="st1" d="M255.9,340.9c-0.1,0.2-0.3,0.4-0.4,0.6C255.6,341.3,255.8,341.1,255.9,340.9z"/>
		<path class="st1" d="M227.2,350.1c0,0-0.1,0.1-0.1,0.1C227.1,350.2,227.2,350.2,227.2,350.1z"/>
		<path class="st1" d="M268.6,331.4c-0.1-0.1-0.2-0.2-0.3-0.3C268.4,331.1,268.5,331.2,268.6,331.4z"/>
		<path class="st1" d="M269,331.9c-0.1-0.1-0.2-0.3-0.3-0.4C268.7,331.6,268.9,331.7,269,331.9z"/>
		<path class="st1" d="M258.2,335.1c-0.1,0.4-0.2,0.9-0.4,1.4C258,336,258.1,335.6,258.2,335.1z"/>
		<path class="st1" d="M227.7,349.5c0,0-0.1,0.1-0.1,0.1C227.7,349.6,227.7,349.5,227.7,349.5z"/>
		<path class="st1" d="M257.6,337.3c-0.1,0.2-0.1,0.4-0.2,0.6C257.4,337.7,257.5,337.5,257.6,337.3z"/>
		<path class="st1" d="M257.8,336.5c-0.1,0.2-0.1,0.4-0.2,0.6C257.7,337,257.7,336.7,257.8,336.5z"/>
		<path class="st1" d="M251.6,344.6c-0.2,0.1-0.5,0.2-0.8,0.3C251.1,344.8,251.3,344.7,251.6,344.6z"/>
		<path class="st1" d="M248.3,345.3C248.3,345.3,248.3,345.2,248.3,345.3C248.3,345.2,248.3,345.3,248.3,345.3z"/>
		<path class="st1" d="M243.5,343.9c-0.1-0.1-0.2-0.1-0.3-0.2C243.3,343.8,243.4,343.8,243.5,343.9z"/>
		<path class="st1" d="M249.7,345.1c-0.1,0-0.2,0-0.3,0C249.5,345.2,249.6,345.1,249.7,345.1z"/>
		<path class="st1" d="M242.7,343.3c-0.1-0.1-0.2-0.2-0.3-0.2C242.5,343.2,242.6,343.3,242.7,343.3z"/>
		<path class="st1" d="M244.2,344.3c-0.1,0-0.1-0.1-0.2-0.1C244.1,344.2,244.2,344.3,244.2,344.3z"/>
		<path class="st1" d="M246.1,345C246.1,345,246.1,345,246.1,345C246.1,345,246.1,345,246.1,345z"/>
		<path class="st1" d="M247.3,345.2c-0.1,0-0.2,0-0.2,0C247.1,345.2,247.2,345.2,247.3,345.2z"/>
		<path class="st1" d="M242.1,342.9c-0.1-0.1-0.2-0.2-0.3-0.3C241.9,342.7,242,342.8,242.1,342.9z"/>
		<path class="st1" d="M254.3,342.8c-0.1,0.1-0.3,0.3-0.4,0.4C254,343.1,254.2,343,254.3,342.8z"/>
		<path class="st1" d="M253.8,343.3c-0.2,0.2-0.4,0.3-0.6,0.4C253.4,343.7,253.6,343.5,253.8,343.3z"/>
		<path class="st1" d="M229.6,346c-0.1,0.1-0.1,0.3-0.2,0.4C229.5,346.3,229.5,346.2,229.6,346z"/>
		<path class="st1" d="M254.9,342.3c-0.1,0.1-0.2,0.3-0.3,0.4C254.6,342.5,254.7,342.4,254.9,342.3z"/>
		<path class="st1" d="M252.3,344.3c-0.2,0.1-0.3,0.2-0.5,0.2C252,344.5,252.1,344.4,252.3,344.3z"/>
		<path class="st1" d="M253,343.9c-0.2,0.1-0.3,0.2-0.5,0.3C252.7,344.1,252.8,344,253,343.9z"/>
		<path class="st1" d="M226.6,350.8c0,0-0.1,0.1-0.1,0.1C226.5,350.8,226.5,350.8,226.6,350.8z"/>
		<path class="st1" d="M144.6,352.5c0.1-0.1,0.3-0.2,0.4-0.2C144.9,352.3,144.7,352.4,144.6,352.5z"/>
		<path class="st1" d="M134.3,353.1c0.3,0.2,0.7,0.3,1,0.5C134.9,353.5,134.6,353.3,134.3,353.1z"/>
		<path class="st1" d="M221.4,351.5c0,0-0.1-0.1-0.1-0.1C221.3,351.5,221.3,351.5,221.4,351.5z"/>
		<path class="st1" d="M269.9,332.9c-0.3-0.3-0.6-0.7-0.9-1C269.3,332.2,269.6,332.5,269.9,332.9z"/>
		<path class="st1" d="M139.2,354.1c0.1,0,0.3,0,0.4,0C139.5,354.1,139.3,354.1,139.2,354.1z"/>
		<path class="st1" d="M221.9,351.8c0,0-0.1,0-0.1-0.1C221.8,351.8,221.9,351.8,221.9,351.8z"/>
		<path class="st1" d="M133.3,352.5c0.3,0.2,0.6,0.4,0.9,0.6C133.9,352.9,133.6,352.7,133.3,352.5z"/>
		<path class="st1" d="M137.3,354c0.1,0,0.2,0,0.4,0C137.5,354.1,137.4,354.1,137.3,354z"/>
		<path class="st1" d="M220.3,350.7C220.3,350.7,220.3,350.7,220.3,350.7C220.3,350.7,220.3,350.7,220.3,350.7z"/>
		<path class="st1" d="M130.4,347.6c0.1,0.4,0.2,0.7,0.4,1.1C130.6,348.3,130.5,348,130.4,347.6z"/>
		<path class="st1" d="M130,346.5L130,346.5c0.1,0.4,0.2,0.7,0.3,1.1C130.2,347.2,130.1,346.8,130,346.5z"/>
		<path class="st1" d="M222.5,352C222.5,352,222.5,352,222.5,352C222.5,352,222.5,352,222.5,352z"/>
		<path class="st1" d="M131.9,350.8c0.2,0.3,0.4,0.6,0.6,0.9C132.3,351.4,132,351.1,131.9,350.8z"/>
		<path class="st1" d="M220.9,351.2c0,0-0.1-0.1-0.1-0.1C220.8,351.1,220.8,351.1,220.9,351.2z"/>
		<path class="st1" d="M131.3,349.8c0.2,0.3,0.3,0.6,0.5,0.9C131.6,350.4,131.4,350.1,131.3,349.8z"/>
		<path class="st1" d="M130.8,348.7c0.1,0.3,0.3,0.7,0.5,1C131.1,349.4,130.9,349.1,130.8,348.7z"/>
		<path class="st1" d="M136.3,353.9c0.1,0,0.2,0,0.3,0.1C136.5,353.9,136.4,353.9,136.3,353.9z"/>
		<path class="st1" d="M140.2,354c0.1,0,0.2,0,0.4-0.1C140.4,353.9,140.3,354,140.2,354z"/>
		<path class="st1" d="M146.1,351.6c0.2-0.1,0.3-0.2,0.4-0.3C146.4,351.5,146.2,351.5,146.1,351.6z"/>
		<path class="st1" d="M145.4,352c0.2-0.1,0.3-0.2,0.4-0.3C145.7,351.9,145.6,351.9,145.4,352z"/>
		<path class="st1" d="M146.6,351.3c0.2-0.1,0.3-0.2,0.4-0.3C146.9,351.1,146.8,351.2,146.6,351.3z"/>
		<path class="st1" d="M147.6,350.6c-0.1,0.1-0.3,0.2-0.4,0.3C147.3,350.8,147.5,350.7,147.6,350.6L147.6,350.6z"/>
		<path class="st1" d="M219.9,350.3c0-0.1-0.1-0.1-0.1-0.2C219.8,350.2,219.9,350.3,219.9,350.3z"/>
		<path class="st1" d="M225.9,351.3C225.9,351.3,225.9,351.3,225.9,351.3C225.9,351.3,225.9,351.3,225.9,351.3z"/>
		<path class="st1" d="M225.2,351.7c0,0-0.1,0-0.1,0.1C225.1,351.7,225.2,351.7,225.2,351.7z"/>
		<path class="st1" d="M142.9,353.2c0.1,0,0.2-0.1,0.3-0.1C143.1,353.2,143,353.2,142.9,353.2z"/>
		<path class="st1" d="M223.2,352.1c-0.1,0-0.1,0-0.2,0C223.1,352.1,223.1,352.1,223.2,352.1z"/>
		<path class="st1" d="M141.1,353.8c0.1,0,0.2-0.1,0.3-0.1C141.3,353.7,141.2,353.8,141.1,353.8z"/>
		<path class="st1" d="M142,353.5c0.1,0,0.2-0.1,0.3-0.1C142.2,353.5,142.1,353.5,142,353.5z"/>
		<path class="st1" d="M143.7,352.9c0.1,0,0.2-0.1,0.3-0.1C143.9,352.8,143.8,352.9,143.7,352.9z"/>
		<path class="st1" d="M223.8,352.1c-0.1,0-0.1,0-0.2,0C223.7,352.1,223.7,352.1,223.8,352.1z"/>
		<path class="st1" d="M338.8,87.6c-18.3-29.6-44.4-53.4-75.5-68.7C219.6-2.6,170.1-5.9,123.9,9.8c-46.1,15.7-83.5,48.4-105,92.1
			s-24.8,93.2-9.1,139.4c11.6,33.9,32.3,63.1,59.9,84.8c-1,5.1-0.4,15.1,8.7,18.1c5.4,1.8,10.6-0.1,14.4-2.5
			c1.7,4.5,5.1,9.1,11.4,11.2c4.5,1.5,8.6,1,12.1-0.4c2.4,0.9,4.9,1.8,7.4,2.6c1.8,3.1,4.6,5.9,8.6,7.3c2.1,0.7,4.1,1,6,1
			c3.7,0,7.1-1.1,9.8-2.5c9,1.4,18.3,2.2,27.9,2.2c6.2,0,12.5-0.3,19.1-1.1c7.1-0.7,14.1-1.7,21.2-3.1c2,1.4,4.4,2.3,7.2,2.3
			c1.1,0,2.3-0.1,3.5-0.5c4-1.1,6.7-3.7,8.7-6.7c1.7-0.5,3.4-1,5-1.6c3.5,1.7,7.7,2.4,12.6,1.1c6.3-1.7,9.9-6.2,11.9-10.6
			c0.2-0.5,0.5-1,0.6-1.6c0.3,0.3,0.7,0.5,1,0.8c3.9,2.9,9,5.3,15.1,3.7c12.4-3.3,15.3-17.3,15.5-17.9c0.1-0.8,0.1-1.5-0.1-2.2
			c-2.9-10.7-10.2-19.5-20.7-24.7c-3.6-1.8-7.5-3.1-11.4-3.9c-6.5-16.2-12.6-31.8-17.6-47.3l-0.9-2.9c0.5-5.1,0.5-10.3-0.1-15.5
			c-0.5-4.1-2.1-8-2.1-12.2c0.1-23.9,0.1-47.8,0.2-71.7c0-0.6-0.3-1.3,0.4-1.8c1.7,1.6,3.3,3.1,5,4.6c3,2.5,6.1,1.9,7.9-1.6
			c1.1-2.2,2-4.4,3.2-6.5c5-9.2,10.8-17.8,16.5-26.4c5.6-8.6,2.6-18.5-7-22.2C256.8,88.3,243,83.1,229.1,78
			c-7.2-2.6-13.9-1.4-19.7,3.7c-0.9,0.8-1.7,1-2.9,0.7c-6.5-1.5-13-2.4-19.6-2.6c-9.6-0.3-19.1,0.5-28.5,2.7c-1,0.2-1.7,0.1-2.5-0.6
			c-6.2-5.6-13.2-6.4-20.9-3.5c-7.4,2.8-14.9,5.5-22.4,8.4c-6.8,2.6-13.9,4.8-20.4,8c-3.9,1.9-6.1,5.2-7.1,9.4
			c-1.1,4.7,0.4,8.8,3,12.7c6.8,10.3,13.8,20.4,18.9,31.7c1.9,4,5,4.6,8.4,1.6c1.6-1.4,3.2-2.8,5-4.5c0.1,0.9,0.1,1.4,0.1,1.9
			c0.1,24,0.1,48.1,0.1,72.1c0,1.1-0.1,2.2-0.4,3.2c-2.2,8.1-2.6,16.2-1.8,24.3l-0.9,2.8c-5.3,16.2-11.6,32.5-18.5,49.5
			c-10.3,2.5-19.3,8.5-24.9,17.1c-25.2-20.3-44.2-47.3-54.8-78.7c-14.8-43.6-11.8-90.4,8.6-131.7C48.3,64.9,83.5,34,127.1,19.1
			c43.6-14.8,90.4-11.8,131.7,8.6c29.4,14.6,54.1,37,71.4,65c16.9,27.3,26,58.5,26.3,90.3c0,2.8,2.3,5,5,5c0.1,0,0.1,0,0.1,0
			c2.8,0,5-2.2,5-5C366.2,149.5,356.6,116.5,338.8,87.6z M272.5,309.2c5.6,2.8,9.9,6.8,12.9,11.6l0,0c0.3,0.5,0.6,1,0.8,1.4
			c0,0,0,0.1,0.1,0.1c0.2,0.4,0.4,0.9,0.7,1.3c0,0.1,0.1,0.2,0.1,0.2c0.2,0.4,0.4,0.8,0.5,1.3c0,0.1,0.1,0.2,0.1,0.3
			c0.2,0.5,0.4,1,0.5,1.6c0,0.1-0.1,0.3-0.1,0.5c-0.4,1.2-1.1,3-2.3,4.8c-1.4,2.1-3.4,4-6.2,4.8c-0.9,0.2-1.7,0.3-2.6,0.1
			c-2.7-0.4-5.2-2.4-7-4.3c0,0,0,0,0,0c-0.3-0.3-0.6-0.7-0.9-1c0,0,0,0,0,0c-0.1-0.1-0.2-0.3-0.3-0.4c0,0-0.1-0.1-0.1-0.1
			c-0.1-0.1-0.2-0.2-0.3-0.3c0,0,0-0.1-0.1-0.1c-0.1-0.1-0.2-0.3-0.3-0.4c-0.5-0.7-0.8-1.1-0.8-1.2c-1-1.7-3-2.5-5-2
			c-1.9,0.5-3.3,2.2-3.4,4.2c0,0-0.1,1.5-0.5,3.5c0,0,0,0,0,0c-0.1,0.4-0.2,0.9-0.4,1.4c0,0,0,0,0,0c-0.1,0.2-0.1,0.4-0.2,0.6
			c0,0,0,0.1,0,0.1c-0.1,0.2-0.1,0.4-0.2,0.6c0,0,0,0.1,0,0.1c-0.2,0.5-0.4,0.9-0.6,1.4c0,0.1-0.1,0.1-0.1,0.2
			c-0.1,0.2-0.2,0.3-0.3,0.5c0,0.1-0.1,0.1-0.1,0.2c-0.1,0.2-0.2,0.3-0.3,0.5c0,0.1-0.1,0.1-0.1,0.2c-0.1,0.2-0.3,0.4-0.4,0.6
			c0,0-0.1,0.1-0.1,0.1c-0.1,0.2-0.2,0.3-0.4,0.5c-0.1,0.1-0.1,0.1-0.2,0.2c-0.1,0.1-0.2,0.3-0.3,0.4c-0.1,0.1-0.1,0.1-0.2,0.2
			c-0.1,0.1-0.3,0.3-0.4,0.4c0,0-0.1,0.1-0.1,0.1c-0.2,0.2-0.4,0.3-0.6,0.4c-0.1,0-0.1,0.1-0.2,0.1c-0.2,0.1-0.3,0.2-0.5,0.3
			c-0.1,0-0.2,0.1-0.2,0.1c-0.2,0.1-0.3,0.2-0.5,0.2c-0.1,0-0.1,0.1-0.2,0.1c-0.2,0.1-0.5,0.2-0.8,0.3c-0.4,0.1-0.8,0.2-1.1,0.2
			c-0.1,0-0.2,0-0.3,0c-0.4,0-0.7,0.1-1.1,0.1c0,0,0,0,0,0c-0.3,0-0.7,0-1-0.1c-0.1,0-0.2,0-0.2,0c-0.3,0-0.6-0.1-0.9-0.2
			c0,0-0.1,0-0.1,0c-0.3-0.1-0.5-0.2-0.8-0.3c-0.1,0-0.1-0.1-0.2-0.1c-0.3-0.1-0.5-0.2-0.8-0.3c-0.1,0-0.1-0.1-0.2-0.1
			c-0.2-0.1-0.4-0.2-0.6-0.3c-0.1-0.1-0.2-0.1-0.3-0.2c-0.2-0.1-0.4-0.3-0.6-0.4c-0.1-0.1-0.2-0.2-0.3-0.2c-0.1-0.1-0.2-0.1-0.3-0.2
			c-0.1-0.1-0.2-0.2-0.3-0.3c0,0,0,0-0.1-0.1c-0.3-0.2-0.5-0.5-0.7-0.7c-1-1-1.5-1.9-1.7-2.1c-1-1.7-2.9-2.5-4.8-2.2
			c-1.9,0.4-3.3,1.9-3.6,3.8c-0.1,0.9-0.4,2.4-1,4c0,0.1-0.1,0.3-0.1,0.4c0,0.1-0.1,0.2-0.1,0.3c-0.1,0.1-0.1,0.3-0.2,0.4
			c-0.1,0.2-0.2,0.4-0.2,0.5c0,0.1-0.1,0.2-0.1,0.3c-0.1,0.2-0.2,0.4-0.3,0.5c0,0.1-0.1,0.2-0.1,0.3c-0.1,0.2-0.2,0.4-0.3,0.6
			c0,0.1-0.1,0.1-0.1,0.2c-0.1,0.2-0.3,0.4-0.4,0.6c0,0-0.1,0.1-0.1,0.1c-0.1,0.2-0.3,0.3-0.4,0.5c0,0-0.1,0.1-0.1,0.1
			c-0.2,0.2-0.3,0.4-0.5,0.5c0,0-0.1,0.1-0.1,0.1c-0.2,0.1-0.3,0.3-0.5,0.4c0,0-0.1,0-0.1,0.1c-0.2,0.1-0.4,0.2-0.6,0.4
			c0,0-0.1,0-0.1,0.1c-0.2,0.1-0.4,0.2-0.7,0.2c-0.2,0.1-0.4,0.1-0.6,0.1c-0.1,0-0.1,0-0.2,0c-0.1,0-0.3,0-0.4,0c-0.1,0-0.1,0-0.2,0
			c-0.2,0-0.3,0-0.5-0.1c0,0-0.1,0-0.1,0c-0.2-0.1-0.4-0.1-0.5-0.2c0,0-0.1,0-0.1-0.1c-0.1-0.1-0.3-0.1-0.4-0.2c0,0-0.1-0.1-0.1-0.1
			c-0.1-0.1-0.2-0.2-0.4-0.3c0,0-0.1-0.1-0.1-0.1c-0.2-0.1-0.3-0.2-0.4-0.4c0,0,0,0-0.1-0.1c-0.1-0.1-0.2-0.2-0.3-0.3
			c0-0.1-0.1-0.1-0.1-0.2c-0.1-0.1-0.2-0.2-0.2-0.3c0-0.1-0.1-0.1-0.1-0.2c-0.1-0.1-0.1-0.2-0.2-0.3c-0.1-0.1-0.2-0.3-0.3-0.4
			c0,0-0.1-0.1-0.1-0.1c-0.1-0.1-0.1-0.2-0.2-0.3c0,0,0-0.1-0.1-0.1c-0.1-0.1-0.1-0.2-0.2-0.3c-0.3-0.5-0.5-1-0.6-1.2
			c-2.1-8.1-0.6-16.7,4.4-24.2c5.1-7.8,13.1-13.5,22.7-16C254.4,304.2,264.2,305.1,272.5,309.2z M255,296.4
			c-4.2,0.1-8.4,0.6-12.5,1.7c-11.7,3.2-21.5,10.2-27.8,19.8c-6.4,9.8-8.3,21.1-5.4,31.7c0,0.1,0.1,0.2,0.1,0.4
			c-5.1,0.9-10.2,1.6-15.3,2.1c-12.8,1.2-25.1,1.2-37.1-0.2c0.3-1.2,0.6-2.4,0.8-3.6c1,0.2,1.9,0.4,2.9,0.4c0.4,0,0.9,0,1.3,0
			c1.2,0,2.3-0.1,3.4-0.1c1.1-0.1,2.1-0.1,3.2-0.1c1,0,1.8,0.1,2.6,0.2c0.8,0.1,1.5,0.3,2.4,0.5c1.5,0.4,3.1,0.8,4.7,0.8
			c1.3,0,2.5-0.2,3.5-0.8c2.9-1.4,4.8-4.9,4.7-8.8c0-2.3-0.6-4.4-1.2-6.4c-0.2-0.7-0.4-1.4-0.6-2.1c-0.2-0.9-0.4-2.1-0.1-2.8
			c0.4-0.7,1.4-1.2,2.5-1.7l16.6-7.5c2.8-1.3,6.7-3,8.6-6.7c1.1-2.2,1-5.2-0.3-7.5c-1.1-1.8-2.8-2.9-4.7-2.9h-0.2
			c-0.2,0-0.4,0-0.6,0c-0.1,0-0.3,0-0.4,0c-0.1,0-0.2,0-0.3,0c-0.5-0.5-0.1-3.5,0.1-4.5v-0.2c0.7-4.5-1-9.1-4.7-12.8
			c1.8-0.8,3.6-1.7,5.4-2.4c8.1-3.3,14.1-9.1,18.3-16.9c0.6-1.1,1.4-1.6,2.6-1.9c4.7-1,9.2-2.7,13.8-4
			C245.4,272.1,250.1,284.1,255,296.4z M203,257.4c1-0.8,1.7-1,2.8-0.2c2.9,2,5.6,4.1,8.9,5.5c1.4,0.5,0.8,1.3,0.3,2
			c-2.6,3.8-6.1,6.7-10.3,8.8c-5.3,2.6-10.9,4.6-15.9,7.8c-0.5,0.3-1.1,0.5-1.4,0.9c-3.2,3.4-6.2,2.8-9.8,0
			c-4.2-3.2-9.3-5.2-14.2-7.3c-5.3-2.2-9.9-5.5-13.3-10.3c-0.5-0.7-1.2-1.4,0.1-2c3.4-1.3,6.2-3.5,9.1-5.5c0.4-0.2,0.7-0.4,1-0.5
			c0.7,0.1,1.1,0.5,1.6,0.8C174.3,267.5,190.7,267.5,203,257.4z M169.6,251.5c3.5-0.2,6.8-0.7,9.2-2.8c2.8-2.5,4.9-2.5,7.6,0
			c2.3,2.1,5.6,2.5,8.9,2.8C190.2,256.7,176.9,257.5,169.6,251.5z M119.6,130.9c-1.6,2.5-3.5,4.7-5.3,7c-0.8,1-1.4,1.2-2.2-0.2
			c-4.9-9.5-11.1-18.2-16.9-27.2c-2.7-4.2-1.7-7.4,3.1-9.2c13.2-5,26.4-9.9,39.5-14.9c5.2-2,9.7-1.3,13.4,2.9c2,2.3,4.2,2.8,7.1,2
			c10.3-2.8,20.7-3.4,31.3-2.8c5.8,0.4,11.6,1.2,17.2,2.8c2.9,0.8,5.2,0.4,7.3-2c3.6-4.1,8-4.9,13.1-2.9c13.2,5,26.4,10,39.7,15
			c4.7,1.8,5.6,5,2.9,9.2c-5.8,8.9-11.9,17.6-16.8,27c-0.9,1.8-1.6,1.1-2.4,0.1c-5.5-6.3-9.7-13.6-13.4-21
			c-3.8-7.7-7.1-15.5-9.8-23.6c-1.1-3.2-2.5-4.4-4.8-4.4c-2.6-0.1-4.4,1.8-4.4,4.4c0.1,2.6,1,4.4,1.6,6.2c4,11,8.6,21.7,14.7,31.7
			c0.7,1.1,1,2.3,1,3.6c-0.1,22.2-0.1,44.6-0.2,66.8c0,0.4,0.1,0.8-0.4,1.3c-1.6-1.7-3.1-3.4-4.7-5.2c-1.3-1.3-2.6-2.5-3.9-3.7
			c-2.6-2.2-5.2-2.2-7-0.2c-1.9,2-1.6,4.8,0.9,7c2.9,2.5,5.5,5.2,7.8,8.2c8,10.6,10.7,22.6,9.5,35.6c-0.1,1.7-0.4,3.5-0.5,5.3
			c-0.1,1.2-0.5,2-1.7,2.3c-2.8,0.8-5.6,1.7-8.4,2.5c-4.3,1.3-8.3,0.2-11.9-2.3c-2.9-2-5.9-4-8.8-6.1c-3.2-2.3-6.6-3.8-10.6-4
			c-2.6-0.1-4.9-1-6.5-3.1c-1.3-1.7-1.2-2.1,0.7-2.8c6.6-2.5,11.2-7,12.9-13.9c2-8.4-1.1-15.1-9.8-16.9c-7-1.4-14.2-1.4-21.2,0.1
			c-8.4,1.9-11.2,8.3-9.5,16.1c1.4,7.3,6.1,12,13,14.6c2,0.7,2.1,1.1,0.8,2.8c-1.7,2.2-4.1,3-6.7,3.1c-3.7,0.2-6.9,1.5-9.9,3.6
			c-2.9,2.1-5.8,4.1-8.8,6.1c-4.3,3-8.9,3.7-13.8,2.3c-2.3-0.7-4.6-1.4-7-2.1c-0.9-0.3-1.6-0.8-1.8-1.9c-1.9-11.9-1.1-23.5,4.5-34.5
			c2.8-5.4,6.5-10.1,11.2-14.2c0.6-0.5,1.2-1,1.7-1.6c1.8-2,1.9-4.6,0.2-6.4c-1.6-1.8-4.1-2-6.2-0.4c-3,2.3-5.6,5-8,7.9
			c-0.4,0.5-0.8,1-1.3,1.4c-0.7-0.7-0.4-1.4-0.4-2.1c-0.1-21.8-0.1-43.5-0.2-65.3c-0.1-1.9,0.4-3.5,1.4-5
			c6.4-10.6,11.1-21.9,15.2-33.6c0.4-1,0.7-2,0.7-3.1c0-2.1-1.1-3.8-3.1-4.4c-2-0.6-4.1,0.1-5.2,2c-0.5,0.8-0.8,1.8-1.1,2.8
			C132.8,106.7,127.2,119.4,119.6,130.9z M123.7,259.8c-0.1,0-0.3-0.1-0.4-0.1C123.5,259.7,123.6,259.8,123.7,259.8
			C123.7,259.8,123.7,259.8,123.7,259.8c4.7,1.4,9.2,2.8,13.9,4.1c1.2,0.3,1.9,0.8,2.4,1.8c3.4,6.3,8.1,11.3,14.1,14.8
			c-6.9,3.2-10.1,8.5-9.5,15.4c0.1,1.2,0.4,2.4,0.9,3.9c0.3,0.8,0.5,1.6,0.8,2.4c1.3,3.8,2,6.2,0.7,8.1c-0.4,0.6-1,1.1-1.7,1.7
			l-0.1,0.1c-5.1-5.1-11.5-9.1-19-11.6c-5.7-1.9-11.4-2.7-16.9-2.6C114.5,285.1,119.4,272.4,123.7,259.8z M78.6,327.8
			c0.2-0.5,0.4-1,0.6-1.5c0.2-0.4,0.4-0.9,0.6-1.3c0-0.1,0-0.1,0.1-0.2c0.5-0.9,1-1.9,1.5-2.7c7.9-12.7,25.4-18.3,42.1-12.7
			c18.7,6,29.6,24.2,24.8,40.7c-0.2,0.1-0.4,0.3-0.6,0.5c-0.1,0.1-0.3,0.2-0.4,0.3c0,0,0,0-0.1,0c-0.1,0.1-0.3,0.2-0.4,0.3
			c0,0-0.1,0.1-0.1,0.1c-0.1,0.1-0.3,0.2-0.4,0.3c-0.1,0-0.1,0.1-0.2,0.1c-0.1,0.1-0.3,0.2-0.4,0.3c-0.1,0.1-0.3,0.2-0.4,0.2
			c-0.1,0.1-0.3,0.2-0.4,0.2c-0.2,0.1-0.4,0.2-0.6,0.3c-0.1,0-0.2,0.1-0.3,0.1c-0.2,0.1-0.4,0.2-0.6,0.2c-0.1,0-0.2,0.1-0.3,0.1
			c-0.2,0.1-0.4,0.1-0.6,0.2c-0.1,0-0.2,0.1-0.3,0.1c-0.2,0.1-0.4,0.1-0.6,0.2c-0.1,0-0.2,0.1-0.3,0.1c-0.2,0-0.4,0.1-0.6,0.1
			c-0.1,0-0.2,0-0.4,0.1c-0.2,0-0.4,0.1-0.6,0.1c-0.1,0-0.3,0-0.4,0c-0.2,0-0.4,0-0.6,0c-0.1,0-0.3,0-0.4,0c-0.2,0-0.4,0-0.6,0
			c-0.1,0-0.2,0-0.4,0c-0.2,0-0.4-0.1-0.7-0.1c-0.1,0-0.2,0-0.3-0.1c-0.3-0.1-0.7-0.2-1-0.3c-0.4-0.1-0.7-0.3-1-0.5c0,0,0,0,0,0
			c-0.3-0.2-0.6-0.4-0.9-0.6c0,0,0,0-0.1,0c-0.3-0.2-0.5-0.5-0.8-0.7c0,0,0,0-0.1-0.1c-0.2-0.3-0.4-0.6-0.6-0.9c0,0,0,0,0-0.1
			c-0.2-0.3-0.4-0.6-0.5-0.9c0,0,0,0,0-0.1c-0.2-0.3-0.3-0.7-0.5-1c0,0,0,0,0-0.1c-0.1-0.4-0.3-0.7-0.4-1.1c0,0,0,0,0,0
			c-0.1-0.4-0.2-0.7-0.3-1.1c-0.8-3.1-0.7-6.1-0.7-6.2c0.1-2-1.2-3.8-3-4.4c-0.5-0.2-1-0.2-1.5-0.2c-1.4,0-2.8,0.7-3.6,1.9
			c-0.1,0.1-1.8,2.3-4.4,4.3c-0.2,0.1-0.3,0.2-0.5,0.4c0,0,0,0,0,0c-0.2,0.1-0.3,0.2-0.5,0.3c0,0,0,0,0,0c-0.2,0.1-0.3,0.2-0.5,0.3
			c0,0,0,0-0.1,0c-0.2,0.1-0.3,0.2-0.5,0.3c0,0-0.1,0-0.1,0c-0.2,0.1-0.3,0.2-0.5,0.2c0,0-0.1,0-0.1,0.1c-0.2,0.1-0.3,0.1-0.5,0.2
			c-0.1,0-0.1,0-0.2,0.1c-0.1,0.1-0.3,0.1-0.4,0.2c-0.1,0-0.1,0-0.2,0.1c-0.1,0-0.3,0.1-0.4,0.1c-0.1,0-0.1,0-0.2,0.1
			c-0.1,0-0.3,0.1-0.4,0.1c-0.1,0-0.2,0-0.2,0c-0.1,0-0.3,0.1-0.4,0.1c-0.1,0-0.2,0-0.3,0c-0.1,0-0.2,0-0.4,0c-0.1,0-0.2,0-0.3,0
			c-0.1,0-0.2,0-0.4,0c-0.1,0-0.2,0-0.3,0c-0.1,0-0.2,0-0.3,0c-0.1,0-0.2,0-0.4,0c-0.1,0-0.2,0-0.3,0c-0.1,0-0.3-0.1-0.4-0.1
			c-0.1,0-0.2,0-0.3-0.1c-0.2-0.1-0.4-0.1-0.7-0.2c-0.4-0.1-0.8-0.3-1.1-0.5c-0.1-0.1-0.2-0.1-0.3-0.2c-0.2-0.1-0.5-0.2-0.7-0.4
			c-0.1-0.1-0.2-0.2-0.3-0.2c-0.2-0.1-0.4-0.3-0.5-0.4c-0.1-0.1-0.2-0.2-0.3-0.3c-0.2-0.1-0.3-0.3-0.5-0.4c-0.1-0.1-0.2-0.2-0.3-0.3
			c-0.1-0.2-0.3-0.3-0.4-0.5c-0.1-0.1-0.1-0.2-0.2-0.3c-0.1-0.2-0.3-0.4-0.4-0.6c0-0.1-0.1-0.1-0.1-0.2c-0.2-0.3-0.3-0.5-0.4-0.8
			c0,0,0-0.1,0-0.1c-0.1-0.2-0.2-0.5-0.3-0.7c0-0.1-0.1-0.2-0.1-0.3c-0.1-0.2-0.1-0.4-0.2-0.5c0-0.1-0.1-0.2-0.1-0.3
			c0-0.2-0.1-0.3-0.1-0.5c0-0.1,0-0.2-0.1-0.3c0-0.2-0.1-0.3-0.1-0.4c0-0.1,0-0.2,0-0.3c0-0.1,0-0.3-0.1-0.4c0-0.1,0-0.2,0-0.2
			c0-0.1,0-0.2,0-0.4c0-0.2,0-0.4,0-0.6c0-0.3,0-0.6,0-0.7c0.1-1.9-1-3.7-2.7-4.4c-1.6-0.6-3.4-0.4-4.7,0.8
			c-0.1,0.1-0.3,0.2-0.4,0.4c-0.1,0.1-0.2,0.2-0.3,0.3c0,0-0.1,0.1-0.1,0.1c-0.1,0.1-0.2,0.2-0.2,0.2c-0.1,0.1-0.1,0.1-0.2,0.2
			c-0.1,0.1-0.1,0.1-0.2,0.2c-0.1,0.1-0.2,0.2-0.3,0.3c-0.1,0-0.1,0.1-0.2,0.1c-0.1,0.1-0.3,0.2-0.4,0.3c0,0,0,0,0,0
			c-1.9,1.6-4.7,3.4-7.3,3.6c-0.7,0.1-1.4,0-2-0.2c-1-0.3-2-0.9-2.6-2.9c-0.1-0.3-0.2-0.6-0.2-0.9C78.3,330,78.5,328.3,78.6,327.8z"
			/>
	</g>
</g>
</svg>
