<?xml version="1.0" encoding="utf-8"?>
<!-- Generator: Adobe Illustrator 24.3.0, SVG Export Plug-In . SVG Version: 6.00 Build 0)  -->
<svg version="1.1" id="Layer_1" xmlns="http://www.w3.org/2000/svg" xmlns:xlink="http://www.w3.org/1999/xlink" x="0px" y="0px"
	 viewBox="0 0 410.4 365" style="enable-background:new 0 0 410.4 365;" xml:space="preserve">
<style type="text/css">
	.st0{display:none;fill:#D2AB50;}
	.st1{opacity:0.69;fill:#B55221;}
	.st2{fill:#D7D7D7;}
	.st3{fill:#F7F9FA;}
	.st4{fill:#D0D2D3;}
	.st5{fill:#7F5E40;}
	.st6{fill:#BF424C;}
	.st7{fill:#919798;}
	.st8{fill:#6B4C34;}
	.st9{fill:#272425;}
	.st10{fill:#4F3724;}
</style>
<g>
	<path class="st0" d="M204.3,3.5c-28.3,0-55,6.8-78.7,18.8"/>
</g>
<g>
	<g>
		<path class="st1" d="M25.8,282.5c-3.4,0.5-7.9,2.8-6.5,5.9c20.9,6.4,43.3-1.8,65.2-1.2c9.9,0.3,19.7,2.4,29.5,2.8
			c11.7,0.5,23.4-1.3,34.3-5.4c2.5-0.9,5.1-2,7.8-1.8c3.2,0.3,5.9,2.3,8.8,3.8c7.3,3.7,15.9,3.7,24,2.9c9-0.9,17.9-2.7,26.7-4.4
			c27.7-5.5,55.4-11,83.1-16.5c3-0.6,6.5-1.5,7.9-4.3c2.6-5.1-4-10-9.5-11.5s-12.6-4.1-12.4-9.8c34.3-7.3,70.9,5.4,104.7-4
			c2.4-0.7,5.1-1.8,5.5-4.2c0.7-3.7-4.2-5.6-7.9-6.1c-47.4-5.6-95.5-5.1-142.8,1.3c-47.7,6.4-94.6,18.8-139.1,36.9
			C80,277.3,52.6,278.7,25.8,282.5z"/>
		<g>
			<g>
				<path class="st2" d="M301.9,159.6c0,0-7.7,50.1-8,58.2c-0.3,8-6,21.7-12.4,24.4c-6.3,2.7-28.7,8-26.7-6.4
					c2-14.4,12.7-10.7,12.7-10.7l7.4-51.1c0,0-24.7-22.1-10-60.5c0,0,36.8-23.1,50.5-5C329,126.5,301.9,159.6,301.9,159.6z"/>
				<g>
					<path class="st3" d="M299.7,49.5c-1.6-0.8-3.4-1.5-5.2-1.2c-1.8,0.3-3.3,2.2-2.8,3.9c0.3,1,1.3,1.7,2.2,2.4
						c5.2,4.1,7.9,11,6.8,17.5c-0.3,1.5-0.7,3.1-0.8,4.6c-1.1,13.8,19,15.1,19.5,1.6C319.8,66.8,309.3,54.4,299.7,49.5z"/>
					<path class="st4" d="M300.5,73.5c-0.2,1.1-0.5,2.2-0.6,3.3c-1.1,13.6,18.5,15,19.5,2.1C312.5,79,304.4,75.5,300.5,73.5z"/>
					<path class="st5" d="M294.5,48.3c-1.8,0.3-3.3,2.2-2.8,3.9c0.3,1,1.3,1.7,2.2,2.4c3.4,2.7,5.8,6.7,6.6,11
						c1.3-0.1,2.6-0.3,3.9-0.7c2.9-1,5.4-3.1,7.1-5.7c-3.5-4.2-7.8-7.6-11.9-9.7C298.1,48.7,296.3,48,294.5,48.3z"/>
				</g>
				<path class="st3" d="M292.3,119.8c0,0,2.1,54.7,44,52.2c0,0,26.7,39.5,29.2,48.1c0,0-17.7,6.6-9.9,17.3
					c7.8,10.7,32.5,0,33.7-3.7s-0.4-23-3.7-28.8c-3.3-5.8-32.1-57.2-34.1-63.8c-2.1-6.6-21.8-78.6-65.8-61.7L292.3,119.8z"/>
				<path class="st3" d="M38.8,287c-6.1,1-13.5,1.5-17.3-3.3c-2.6-3.3-2.4-8.3-0.3-12s5.7-6.3,9.5-8.2c9-4.6,21.4-5.1,28.1,2.5
					c19.8-13.8,43-21.9,66.7-26.9c8.9-1.9,19.5-2.8,25.7,3.8c5.8,6.1,4.5,17.6-2.8,21.8c-8.3,4.7-21.6,5.2-30.8,7.2
					C91.4,277.6,65.2,282.6,38.8,287z"/>
				<g>
					<path class="st3" d="M253,248.4c3-2,5.9-4.2,8.5-6.8c12-12.1,16.9-29.4,22.9-45.3c7.4-19.5,19.2-36.9,27.8-55.9
						c4.4-9.7,8-19.8,9.5-30.3c1.4-9.8,4.1-20.1-4.8-27.1C297,67.3,264.8,85.6,247,95.7c-45.5,25.8-95,51-127.3,93.2
						c-3.4,4.4-6.7,8.9-8.7,14.1c-2.8,7.2-2.9,15.5-0.4,22.8c2.5,7.2,9,9.9,15.6,12.9c12.4,5.4,25.8,8,38.8,11.5
						c16.4,4.5,33,8.8,50,8.7C228.3,258.7,241.9,255.6,253,248.4z"/>
				</g>
				<path class="st5" d="M163,175.1c3.5,6.6,13.7,14.2,20.6,17.1c8.8,3.8,21.9,4.4,31.3,3.9c9.9-0.5,20-3.6,27.6-10
					c8.7-7.4,13.4-18.5,16.1-29.7c1.3-5.5,2.3-11.1,4.7-16.1c7-14.4,24.5-21,32.6-34.8c2-3.5,3.4-7.3,4.3-11.2
					c1.3-5.8,1.3-12.4-1.7-17.4C280.6,76.6,260,88.3,247,95.7c-28.6,16.2-58.7,32.2-85.2,52.2c-0.4,2.9-0.6,5.8-0.9,8.8
					C160.5,162.9,160.1,169.6,163,175.1z"/>
				<path class="st6" d="M181.1,134.2c0,0,40,1.3,44.2,54.9c4.3,53.6-51.9,59.1-51.9,59.1L181.1,134.2z"/>
				<path class="st3" d="M293.2,236.2c13.2,8.5,0.8,17.8-8.8,22c-15.7,6.9-31.8,12.6-48.3,17.2c-7.3,2-14.1,3.2-20.4,7.2
					c-6.1,4-13,6.5-20.3,7.2c-5.7,0.5-12.7-1-14.3-6.4c-0.8-2.6-0.1-5.4,1.1-7.8c4.2-8.9,14.4-14.4,24.1-13.1
					c1.6,0.2,3.2,0.6,4.7,0.2c1.7-0.4,3-1.8,4.3-2.9c7-6,17.7-9.7,19.4-18.7c0.4-2.3,0.2-4.7,0.5-7
					C239.4,207.5,281.7,228.8,293.2,236.2z"/>
				<path class="st7" d="M213.4,261.2c1.9-2.9,4.6-5.3,7.4-7.4c2.8-2.1,5.8-3.9,8.9-5.5c3.1-1.6,6.3-3,9.6-4.2
					c1.6-0.6,3.3-1.1,4.9-1.6c1.7-0.4,3.4-0.9,5.1-1.3c-3.1,1.6-6.2,3-9.3,4.5s-6.2,3-9.2,4.6c-3.1,1.5-6,3.2-8.9,5
					C218.8,257,215.9,258.8,213.4,261.2z"/>
				<path class="st7" d="M272.9,225.5c-4.1-0.8-7.9-2.1-11.7-3.4c-3.8-1.4-7.6-2.8-11.3-4.7c4.2,0.2,8.1,1.2,12,2.6
					C265.8,221.4,269.5,223,272.9,225.5z"/>
				<path class="st7" d="M293.5,129.7c0.6,2.7,1.3,5.4,2.1,8.1c0.8,2.7,1.8,5.3,2.9,7.8c2.2,5,5,9.8,8.6,13.9c3.5,4.1,8,7.4,13,9.5
					c2.5,1.1,5.1,1.9,7.9,2.3c2.7,0.6,5.5,0.7,8.3,0.8c-5.5,0.8-11.4,0.4-16.8-1.5c-5.4-1.8-10.3-5.4-14-9.7s-6.6-9.4-8.5-14.7
					C295,140.8,293.8,135.3,293.5,129.7z"/>
			</g>
			<g>
				<g>
					<g>
						<path class="st3" d="M144.7,110.6c-2.1-3.1-5.8-5.1-9.5-5.1c-5.5,0-10.2,3.7-14.4,7.2c-2.5,2.1-4.9,4.2-7.4,6.2
							c-1.6,1.3-3.2,2.7-4.1,4.6c-0.2,0.4-0.4,0.9-0.4,1.4c0,1.4,1.4,2.5,2.7,2.6c1.4,0.1,2.7-0.4,4-0.9c4.4-1.8,8.9-3.6,13.3-5.4
							c0.8-0.3,1.6-0.6,2.4-0.5c2.3,0.3,2.8,3.3,2.7,5.6c0,0.6,0,1.3,0.3,1.8c0.4,0.7,1.2,0.9,2,1.1c2.5,0.7,5.1,1.3,7.6,0.9
							c1.6-0.3,4-1.3,4.7-3s-0.3-3.2-0.7-4.9C147.2,118.3,147.1,114.1,144.7,110.6z"/>
						<path class="st2" d="M148,122.3c0.4,1.7,1.4,3.2,0.7,4.9s-3.1,2.7-4.7,3c-2.5,0.4-5.1-0.2-7.6-0.9c-0.7-0.2-1.6-0.4-2-1.1
							c-0.3-0.5-0.3-1.2-0.3-1.8c0-1.2-0.1-2.6-0.6-3.7c4.9-1.5,10.9-1.1,14.4-0.7C148,122,148,122.2,148,122.3z"/>
					</g>
					<path class="st3" d="M76.6,235.8c-0.6,9.3-0.5,18.9,3.4,27.4c7.8,16.5,28.9,23.4,46.8,19.9s33.3-14.8,47.1-26.7
						c20.2-17.4,40.2-39.4,40.9-66c0.9-31.7-27.8-58.6-58.9-64.9c-9.6-1.9-19.9-2.3-29,1.2C90.1,140.5,78.8,202.4,76.6,235.8z"/>
					<path class="st5" d="M163.3,127.3c-2.3,2.1-4.6,4.4-6.9,7c-10.6,12-20.5,25.2-25.8,40.5c-2.7,7.7-4.1,15.9-4.3,24.1
						c-0.1,7.1,0.9,14.7,5.1,20.4c7.1,9.7,20.7,11.4,32.7,11.4c5.9,0,11.8-0.2,17.7-1.3c8.8-1.6,17.2-5.1,24.5-10.1
						c5-8.9,8.2-18.6,8.4-28.9C215.7,161.1,191.5,136,163.3,127.3z"/>
					<path class="st8" d="M189.7,141.3c-2.7,0.7-5.2,1.8-7.5,3.6c0,0,7.5,41.2,32.1,35.8C211.7,165.2,202.4,151.4,189.7,141.3z"/>
					<path class="st9" d="M88.5,274.4c2.9,1.9,6.5,3.2,9.8,2.3c2.5-0.7,4.6-2.6,6.5-4.4c1.7-1.6,3.4-3.2,5.2-4.8
						c1.9-1.8,3.9-3.7,5.3-5.9c1.4-2.3,2.1-5.1,1.5-7.6c-0.7-2.7-2.9-4.7-5.4-6c-2.5-1.2-5.2-1.7-8-2c-3.8-0.5-7.6-0.8-11.5-1
						c-3.1-0.1-6.2-0.1-9.1,1C69.8,250.8,81.1,269.5,88.5,274.4z"/>
					<g>
						<path class="st5" d="M180,144.1c-0.3-3,0.7-6.3,3.3-7.8c1.1-0.6,2.3-0.9,3.5-1c6.5-0.8,13.3,0.9,19.3-1.7
							c1.9-0.8,3.7-2.1,5.8-2.1c1.6,0,3,0.7,4.3,1.6c5.6,3.9,8,11.2,7.9,18s-2.4,13.4-4.7,19.8c-0.6,1.8-1.5,3.8-3.4,4.1
							c-1.1,0.2-2.1-0.2-3.1-0.7c-7.4-3.4-14.3-7.9-20.4-13.2C187.5,156.8,180.8,151.4,180,144.1z"/>
						<g>
							<path class="st10" d="M180,144.1c-0.3-1.9-0.1-4,0.9-5.7c0.5-0.9,1.2-1.7,2-2.2c0.8-0.6,1.8-0.9,2.8-1.1
								c3.9-0.8,7.8-0.5,11.6-0.6c1.9-0.1,3.8-0.2,5.6-0.6c0.9-0.2,1.8-0.5,2.6-0.8s1.7-0.8,2.6-1.3c0.9-0.4,1.9-0.8,3-1
								s2.3,0.1,3.3,0.5s1.9,1,2.7,1.6c0.4,0.3,0.8,0.6,1.2,1c0.4,0.3,0.7,0.7,1.1,1.1c2.8,3,4.4,6.9,5.1,10.8
								c0.7,3.9,0.5,8-0.3,11.8c-0.8,3.9-2.1,7.5-3.4,11.2l-1.1,2.7c-0.4,0.9-0.8,1.8-1.4,2.6c-0.6,0.8-1.6,1.4-2.6,1.4
								s-1.9-0.4-2.8-0.9c0.9,0.4,1.8,0.7,2.8,0.6c0.9-0.1,1.7-0.7,2.2-1.5s0.9-1.7,1.1-2.6l0.9-2.8c1.2-3.7,2.2-7.4,2.8-11.1
								c0.6-3.7,0.8-7.6,0-11.2c-0.7-3.6-2.2-7.2-4.7-9.8c-0.3-0.3-0.6-0.7-1-1c-0.3-0.3-0.7-0.6-1-0.9c-0.7-0.6-1.5-1-2.3-1.4
								c-0.8-0.3-1.6-0.5-2.4-0.4c-0.8,0.1-1.6,0.4-2.5,0.8c-0.8,0.4-1.7,0.9-2.7,1.2c-1,0.4-1.9,0.7-2.9,0.9c-2,0.4-4,0.5-5.9,0.5
								c-3.9,0-7.7-0.5-11.5,0c-0.9,0.1-1.8,0.4-2.6,0.8c-0.8,0.4-1.5,1.1-2,1.9C180.4,140.2,179.9,142.2,180,144.1z"/>
						</g>
					</g>
				</g>
				<path class="st9" d="M140.9,206.8c0,1.5-1.2,2.8-2.8,2.8c-1.5,0-2.8-1.2-2.8-2.8c0-1.5,1.2-2.8,2.8-2.8
					C139.6,204,140.9,205.3,140.9,206.8z"/>
				<path class="st9" d="M90,205.1c0,1.5-1.2,2.8-2.8,2.8c-1.5,0-2.8-1.2-2.8-2.8c0-1.5,1.2-2.8,2.8-2.8S90,203.5,90,205.1z"/>
				<path class="st9" d="M153.9,201.4h-28.2c-0.6,0-1.1-0.5-1.1-1.1s0.5-1.1,1.1-1.1h28.2c0.6,0,1.1,0.5,1.1,1.1
					S154.5,201.4,153.9,201.4z"/>
				<path class="st9" d="M98.2,201.4H82.7c-0.6,0-1.1-0.5-1.1-1.1s0.5-1.1,1.1-1.1h15.6c0.6,0,1.1,0.5,1.1,1.1
					C99.3,200.9,98.8,201.4,98.2,201.4z"/>
			</g>
		</g>
	</g>
</g>
</svg>
