<?xml version="1.0" encoding="utf-8"?>
<!-- Generator: Adobe Illustrator 24.3.0, SVG Export Plug-In . SVG Version: 6.00 Build 0)  -->
<svg version="1.1" id="Layer_1" xmlns="http://www.w3.org/2000/svg" xmlns:xlink="http://www.w3.org/1999/xlink" x="0px" y="0px"
	 viewBox="0 0 410.4 554.2" style="enable-background:new 0 0 410.4 554.2;" xml:space="preserve">
<style type="text/css">
	.st0{fill:#BB4B0E;}
	.st1{fill:#71D5DE;}
	.st2{fill:#008380;}
	.st3{fill:#FFFFFF;stroke:#5F2214;stroke-width:2;stroke-miterlimit:10;}
	.st4{display:none;fill:#D2AB50;}
	.st5{fill:#FFFFFF;}
	.st6{fill:#FCB04B;}
	.st7{fill:#FFA833;}
	.st8{fill:#5F2214;}
</style>
<circle class="st0" cx="204.3" cy="183" r="177.5"/>
<g>
	<path class="st1" d="M81.7,385.2c-1.2-2.6-2.7-5-4.6-7.1c-0.6-0.6-1.2-1.2-1.8-1.8c-20.2-18.6-50.4-9.7-65.2,6.4
		c-2,2.1-3.6,4.4-5,6.7c-2.8,4.9-4.4,10.3-4.1,16.1c0.1,1.5,1.4,3.1,2.9,4.1c1,0.7,4.2,1.7,4-1.1c-0.3-4.7,1-9.5,3.6-13.9
		c10.5-18,40.3-27.2,57-17.4c1.4,0.8,2.8,1.8,4,2.9c0.2,0.2,0.4,0.4,0.6,0.6c8.9,10,4.9,43.9-13.7,60.5c-2.8,2.4-5.8,4.5-9.2,6
		c-9,4.1-16.2,3.6-20.9,1.8c7.3-25.2,12.2-51.6,11.4-63.2c-0.1-1.5-1.5-3.1-2.9-4.1c-1-0.7-4.2-1.7-4,1.1
		c0.7,10.6-4.2,36.3-11.3,60.9c-0.8-1.4-1.2-2.8-1-4.1c0.2-1.6-1.2-3.2-2.5-4.2c-0.9-0.7-4-2.3-4.3,0.4c-0.5,3.7,1.5,8.9,6.2,13.5
		C14.8,470,7.2,489,0.5,496.6c-1.4,1.5,0.4,3.6,1.4,4.6c1,0.9,3.2,2.8,4.6,1.1c7.3-8.2,15-27.3,21.3-48c7.4,3.9,16.6,4.3,27.3-0.6
		C79.3,442.7,91.5,406.5,81.7,385.2z"/>
	<path class="st1" d="M236.8,447.3c-0.9-0.9-3.3-2.8-4.6-0.9c-2.2,3-9,12.2-16.1,19.9c-5,5.4-10.4,10-13.6,11.2
		c-0.3-6.4,3.8-20.1,4.5-24c0.1-0.8,0.8-3.9-3.1-6.9c-4.1-3.1-8.3-1.6-12.3-0.6c0.9-1.2,2-2.8,2.9-4.2c0.4-0.6,0.7-1.2,1-1.7
		c2.6-4.9,5-10-0.4-14.9c-4.5-4-9-2.2-12.2,1.4c-1.6,1.7-2.9,3.9-4.1,6.2c-0.6,1.2-1.1,2.4-1.5,3.6c-1,3.1-2.5,7.9,1.4,12.6
		c-3.1,4.1-8.7,11.3-14.4,17.5c-5,5.4-10.4,10-13.6,11.2c-0.3-6.4,3.8-20.1,4.5-24c0.1-0.8,0.8-3.9-3.1-6.9
		c-4.1-3.1-8.3-1.6-12.3-0.6c0.9-1.2,2-2.8,2.9-4.2c0.4-0.6,0.7-1.2,1-1.7c2.6-4.9,5-10-0.4-14.9c-4.5-4-9-2.2-12.2,1.4
		c-1.6,1.7-2.9,3.9-4.1,6.2c-0.6,1.2-1.1,2.4-1.5,3.6c-1,3-2.4,7.6,1.1,12.2c-2.8,2.7-8.2,7.4-15.7,12.2c-7.2,4.6-15.7,8.4-23.3,8.4
		c-4.2,0-6.3-1.8-6.4-2c-0.5-0.7-1.6-3.4-0.8-7.4c0.1-0.5,0.2-0.8,0.3-1.5c9.8,0.3,17.2-1.6,22.1-4.4c5.9-3.4,10-8.5,6.5-14.7
		c-0.2-0.4-0.5-0.8-0.7-1.1c-3.4-4.8-8.1-5.7-11.7-5.7c-6,0-17.2,4.5-22,18.2c-0.6,1.6-1,3.3-1.4,5.2c-0.9,4.6-0.4,8.7,2.5,12.8
		c4.4,6.1,10.5,7.5,14.7,7.5c8.9,0,17.8-4.2,25.3-8.9c9-5.7,14.9-11.2,17.4-13.8c1,0.2,2.1,0.4,3.2,0.4c4.3,0,8.2-0.8,11.2-1.3
		c-1.8,6.3-7.3,21.1-2,28.3c0.3,0.5,0.8,1,1.3,1.5c6,6,12.6,1.1,17.9-4.1c1.9-1.9,3.7-3.9,5.4-5.7c6.4-6.9,12.6-15,15.4-18.9
		c0.9,0.2,1.9,0.3,2.9,0.3c4.3,0,8.2-0.8,11.2-1.3c-1.8,6.3-7.3,21.1-2,28.3c0.3,0.5,0.8,1,1.3,1.5c6,6,12.6,1.1,17.9-4.1
		c1.9-1.9,3.7-3.9,5.4-5.7c7.3-7.9,14.2-17.1,16.4-20.2C239.6,450.2,237.9,448.3,236.8,447.3z M99.8,439c1.5,0,2.6,0.2,3.4,0.5
		c0.1,1.5-1.2,5.1-5.9,7.8c-3.3,1.9-8.1,3.4-14.5,3.8C87.7,441.9,96.1,439,99.8,439z M136.1,436.5c-1.4,2.3-3,4.5-4.8,6.4
		c0.3-1.5,1-3.6,1.9-5.4c1.7-3.3,3.7-5.5,5.6-6.8C138.3,432.3,137.4,434.2,136.1,436.5z M188.1,436.5c-1.4,2.3-3,4.5-4.8,6.4
		c0.3-1.5,1-3.6,1.9-5.4c1.7-3.3,3.7-5.5,5.6-6.8C190.2,432.3,189.4,434.2,188.1,436.5z"/>
</g>
<g>
	<path class="st2" d="M299.4,369.4c-6.5-5-15,0.6-20.8,8.2c-4.4,5.7-7.8,13-8.5,19.6c-0.5,5.2,0.3,11.4,6.3,17.4
		c1,1,3.1,2.8,4.6,1.3s-0.3-3.6-1.2-4.6c-0.4-0.4-0.7-0.8-1.1-1.3c-6-9.2,4.9-27.7,14.1-33.7c1.6-1.1,3.1-1.7,4.2-1.8
		c0.2,1.1,0.3,2.9,0,5.2c-3.2,29.3-20.2,100.7-30.6,112.8c-1.3,1.6,0.4,3.6,1.4,4.6c1,0.9,3.2,2.8,4.6,1.1
		c11.8-13.7,28.1-84.7,31.4-114.7C304.5,378.7,304.7,373.5,299.4,369.4z"/>
	<path class="st2" d="M408.5,447.3c-0.9-0.9-3.2-2.8-4.6-1c-2.7,3.4-8,9.4-15.2,16.2c-3.2,3-6.5,5.2-8.8,5.7
		c0.1-2.8,1.1-7.5,2.2-12.1c1.4-6,5.4-15.8-2.5-22.1c-1-0.8-2-1.3-2.8-1.6c-5.3-2-9.6,0.6-13.2,4.8c0-1.2-1-2.7-2.3-3.7
		c-0.8-0.7-3.7-2.6-4.5-0.1c-0.9,2.8-2.5,8.4-4.2,14.3c-2.9,3.5-7.8,8.9-14.2,14.9c-3.2,3-6.5,5.2-8.8,5.7c0.1-2.8,1.1-7.5,2.2-12.1
		c1.4-6,5.4-15.8-2.5-22.1c-1-0.8-2-1.3-2.8-1.6c-5.3-2-9.6,0.6-13.2,4.8c0-1.2-1-2.7-2.3-3.7c-0.8-0.7-3.7-2.6-4.5-0.1
		c-2.5,8-10.5,36.9-10.5,36.9c-0.5,1.7,1.1,3.5,2.5,4.5c0.9,0.7,3.5,2.1,4.2-0.1c0,0,4.2-12.1,10.1-22.4c4.6-8.1,10.4-13.8,14-13.7
		c0.4,2.6-0.5,8.1-1.7,13.3c-1.3,5.4-2.7,10.7-2.2,14.9c0.2,1.2,0.8,4.5,4.5,6.9c6.7,4.4,12.3-1,16.8-5.2c1.2-1.2,2.4-2.3,3.6-3.4
		c-0.9,3.1-1.5,5.2-1.5,5.2c-0.5,1.7,1.1,3.5,2.5,4.5c0.9,0.7,3.5,2.1,4.2-0.1c0,0,4.2-12.1,10.1-22.4c4.6-8.1,10.4-13.8,14-13.7
		c0.4,2.6-0.5,8.1-1.7,13.3c-1.3,5.4-2.7,10.7-2.2,14.9c0.2,1.2,0.8,4.5,4.5,6.9c6.7,4.4,12.3-1,16.8-5.2
		c7.4-6.9,12.7-12.9,15.6-16.5C411.2,450.3,409.5,448.4,408.5,447.3z"/>
</g>
<g>
	<path class="st3" d="M368.9,261.5c0.6-4.8,0.5-9.8-0.1-14.7c7-10.3,11.6-22.3,7.8-34.3c-3.9-12.5-17.1-24.4-31.5-22
		c-2.7,0.5-4.6,3.1-4.1,5.8c0.5,2.7,3.1,4.6,5.8,4.1c8.7-1.5,17.7,6.8,20.3,15.1c1.8,5.7,0.8,11.6-1.8,17.4
		c-0.6-1.5-1.2-2.9-1.9-4.3c-4.1-7.9-11-13.1-18.5-14c-4.2-0.4-8.7,0.4-13.5,2.6c-10.5,4.8-18.7,14.6-21.5,25.7
		c-2.7,10.5-0.2,21.9,6.4,29.8c2.6,3.1,5.3,5,8.4,5.9c7.7,2.2,14.7-3,17-4.7c3.8-2.8,10.6-8.2,17.4-15.3c-0.1,0.6-0.1,1.2-0.2,1.8
		c-2,17.7-19.3,38.8-45.4,56.5c1.9,2.8,3.4,5.9,4.1,9.3C347.3,306.5,366.5,282.7,368.9,261.5z M335.7,266c-3.6,2.6-6.4,3.7-8.3,3.1
		c-1-0.3-2.2-1.2-3.5-2.7c-4.6-5.5-6.3-13.5-4.4-20.9c2.1-8.2,8.2-15.5,16-19.1c2.5-1.2,4.9-1.8,7-1.8c0.4,0,0.8,0,1.3,0.2
		c4.9,0.5,8.7,4.8,10.7,8.6c1.6,3.2,2.9,7,3.7,11.1C350,255,339.2,263.4,335.7,266z"/>
	<path class="st1" d="M360.8,87.5c-18.3-29.6-44.4-53.4-75.5-68.7C241.6-2.7,192.1-6,145.9,9.7c-46.1,15.7-83.5,48.4-105,92.1
		c-21.5,43.7-24.8,93.2-9.1,139.4c15.7,46.1,48.4,83.4,92.1,105c22.7,11.2,47.5,16.8,74.1,16.8c6.2,0,12.5-0.3,19.1-1.1
		c28.9-2.7,58.2-11.9,84.7-26.3c5.5-3,10.8-6.2,15.8-9.5c-0.7-3.3-2.1-6.5-4.1-9.3c-5.2,3.5-10.7,6.8-16.5,10
		c-25.3,13.8-53.3,22.5-80.9,25.2c-31.9,3.1-61.4-1.9-87.7-14.9c-41.4-20.4-72.3-55.7-87.1-99.3c-14.8-43.6-11.8-90.4,8.6-131.7
		c20.4-41.3,55.6-72.2,99.2-87.1c43.6-14.8,90.4-11.8,131.7,8.6c29.4,14.6,54.1,37,71.4,65c16.9,27.3,26,58.5,26.3,90.3
		c0,2.8,2.3,5,5,5c0.1,0,0.1,0,0.1,0c2.8,0,5-2.2,5-5C388.2,149.4,378.6,116.4,360.8,87.5z"/>
</g>
<g>
	<path class="st4" d="M204.3,3.5c-28.3,0-55,6.8-78.7,18.8"/>
</g>
<path class="st5" d="M283.9,301.1c-6.7-16.5-13.2-33-18.7-50h-6.6c4.1-18.4-1.5-38.4-16.3-50.6c-2.5-2.2-2.8-4.9-0.9-7
	c5.7-5.2,11.7,5.6,15.6,9.1c0.2-23.5,1.9-48.4-0.5-71.7c-6.8-11.8-13-24.3-16.3-37.5c0.2-5.6,8-6.1,9.2,0
	c1.2,5.7,20.5,49.8,25.6,44.6c4.9-9.4,11-18.1,16.8-27c2.7-4.2,1.7-7.4-2.9-9.2c-13.3-5-26.5-10-39.7-15c-10.7-5-11.9,7.1-20.4,4.9
	c-5.6-1.6-11.4-2.5-17.2-2.8c-10.6-0.6-21,0-31.3,2.8c-2.9,0.8-5.1,0.3-7.1-2c-3.7-4.2-8.2-4.9-13.4-2.9c-13.1,5-26.3,10-39.5,14.9
	c-4.7,1.8-5.8,5-3.1,9.2c5.8,9,11.9,17.7,16.9,27.2c5.8,3.8,23.6-37.6,25.3-44.1c0.6-5.9,9.2-6.9,9.4-0.4
	c-3.3,12.9-9.3,25.1-15.8,36.7c-1,1.6-1.4,3.2-1.4,5c0.5,22.4-0.7,45.3,0.6,67.4c2.9-3.3,5.8-6.7,9.3-9.4c6.1-4.3,10.4,5.1,4.3,8.3
	c-14.1,12-19.2,31.7-15.4,49.4h-6.6c-5.7,17.6-12.5,34.8-19.5,51.9c-35.3,6.3-36.2,50-9.8,33c1.3,0.8,2.7,1.6,4.1,2.3
	c0.7,7,12,13.6,19.1,9.1c3.8,1.5,7.6,2.9,11.5,4.2c2.7,7,13.2,8.3,18.7,5c31.5,6.3,65.2,4.9,95-6.2c6.9-2.4,15.2,0.6,19.3-8.1
	c2.9-1.4,5.8-3,8.6-4.5c12.2,11.1,23.8-5.1,24.1-11.1C311.2,312.9,298.7,303.2,283.9,301.1z M181.5,246c3-2.1,6.2-3.4,9.9-3.6
	c2.6,0.5,10.8-4.1,5.9-5.9c-6.9-2.6-11.6-7.3-13-14.6c-4.5-18.1,18.4-18.9,30.7-16.3c8.7,1.7,11.8,8.5,9.8,16.8
	c-1.7,7-6.3,11.5-12.9,13.9c-4.7,1.9,3.3,6.4,5.8,5.9c7.1,0.1,12.1,5.4,17.8,8.9h-20.2c-5.8,0.4-9.4-7.9-14.5-2.6
	c-3.7,4.4-21.8,2-26.7,2.6C176.5,249.4,179,247.7,181.5,246z"/>
<g>
	<path class="st1" d="M204.3,365c-33.6,0-66.5-9.3-95.1-26.8l4.7-7.7c27.1,16.7,58.4,25.5,90.4,25.5c32.1,0,63.5-8.9,90.7-25.7
		l4.7,7.7C271.1,355.6,238.1,365,204.3,365z"/>
</g>
<path class="st6" d="M187.3,138.5c-0.7,0-1.4,0-2.1,0c-3.4,0-6.9,0.3-9.7,2.1c-4.9,3-7.3,9.6-12.8,10.9c-2.9,0.6-5.8-0.4-8.6-0.9
	c-0.8-0.2-1.6-0.2-2.3-0.3c0,11.4,0.1,22.7,0.1,34.1c3.6,3.9,9,5.2,16.4,1c1.2-0.7,2.4-1.6,3.8-1.8c1.5-0.2,3,0.4,4.5,0.3
	c4.9-0.2,7.2-6.5,11.8-8.2c2.7-1,5.8-0.2,8.6-1C213.4,170,201.5,138.7,187.3,138.5z"/>
<path class="st7" d="M257.8,104.3c-1.4-1-3.2-1.9-5.3-2.8c2.1,5.3,4.3,10.4,6.8,15.5c3.7,7.4,7.9,14.7,13.4,21c0,0,0,0,0.1,0.1
	c0.6-1,0.8-2.3,0.9-3.5c0.3-4.9,0.7-9.8,1-14.7C275.4,109.9,264.7,109,257.8,104.3z"/>
<path class="st7" d="M241.4,193.6c1.8-2,4.4-2,7,0.2c1.3,1.1,2.6,2.4,3.9,3.7c1.6,1.8,3.1,3.5,4.7,5.2c0.5-0.5,0.4-0.9,0.4-1.3
	c0.1-22.2,0.1-44.6,0.2-66.8c0-1.3-0.4-2.5-1-3.6c-6.1-10-10.7-20.7-14.7-31.7c-0.1-0.2-0.1-0.3-0.2-0.5c-7.5-0.9-14.9,0.8-17.6,8
	c-1.2,3.1-0.3,6.6,0.6,9.8c0.3,0.9,0.5,1.8,0.8,2.7c1.3,4.7,2.6,9.3,4,14c1.3,4.5,2.6,9.1,5.9,12.4c1.7,1.7,3.9,3,5,5.1
	c1.6,3.1,0.6,6.9-1.3,9.9s-4.4,5.4-6.1,8.4c-3.1,5.6-2.8,12.8,0.8,18.1c1.9,2.8,4.5,5,7.3,7C241.1,194,241.3,193.8,241.4,193.6z"/>
<path class="st8" d="M232.7,312c1.5-2.9,0-7.4-3.3-7.5c-0.6,0-1.2,0.1-1.7,0c-2.6-0.5-2-4.3-1.5-7c0.7-4.3-1.4-8.5-4.6-11.6
	c-5.4,2.7-10.5,5.8-15.2,9.6c-1.1-0.1-2.3-0.1-3.4-0.1c-6.8-5.5-14.4-9.6-22.5-13c-0.7-0.3-1.3-0.6-1.9-0.9
	c-6.3,2.4-10.5,6.8-9.8,14c0.1,1.2,0.4,2.3,0.8,3.5c1.4,4.4,3.7,8.7,1.3,12.3c-0.6,0.8-1.3,1.5-2.1,2.1c8.3,9,12.7,20.7,11.4,32.4
	c0.9,0.2,1.8,0.4,2.8,0.4c3.6,0.2,7.2-0.6,10.7,0c3.2,0.5,6.5,2.1,9.5,0.7c2.5-1.2,3.6-4.2,3.6-7s-1-5.4-1.7-8.1
	c-0.3-1.4-0.6-2.9,0.1-4.2c0.7-1.3,2.1-2,3.4-2.6c5.5-2.5,11.1-5,16.6-7.5C228,316.4,231.2,314.9,232.7,312z"/>
<path class="st8" d="M115.8,336l-8.3-3.4c2.6-6.5,5.2-12.9,7.8-19.2c2-4.8,3.9-9.5,5.8-14.2c-13.5,3.3-24.7,12.5-29.1,25.7
	c-0.1,0.2-0.1,0.3-0.1,0.5c-1.1,5-0.7,15.4,8.6,18.5c5.4,1.8,10.6-0.1,14.4-2.5c1.7,4.5,5.1,9.1,11.4,11.2
	c6.9,2.3,12.9-0.1,17.2-3.2c1.4,5,4.5,10.5,10.9,12.7c2.1,0.7,4.1,1,6,1c9.4,0,16.5-7,16.9-7.3c0.5-0.5,0.9-1.1,1.1-1.8
	c7.2-21.5-6.3-45.5-30.1-53.5c-5.7-1.9-11.4-2.7-16.9-2.6c-2.5,6.2-5.1,12.5-7.7,19C121,323.2,118.4,329.6,115.8,336z"/>
<g>
	<g>
		<path class="st8" d="M238.7,138c-2-1.9-4.6-3.2-6.8-4.7c-0.9-0.6-1.7-0.3-2.6,0.2c-2.6,1.6-4.9,1.3-6.4-0.8s-1.1-4.4,1.1-6.4
			c3.1-2.8,7.9-3.6,11.5-1.4c5.1,3.1,10.1,6.4,15.1,9.7c2.6,1.7,3.1,4.5,1.6,6.7c-1.4,2.1-4,2.5-6.7,0.8c-2-1.2-4-2.5-5.9-3.7
			C239.3,138.3,239,138.1,238.7,138z"/>
	</g>
</g>
<g>
	<g>
		<path class="st8" d="M169.5,138.4c-2,1.3-4,2.5-5.9,3.7c-2.6,1.6-5.2,1.2-6.7-0.8c-1.5-2.2-1-4.9,1.6-6.7
			c4.9-3.3,9.8-6.5,14.9-9.6c3.9-2.3,8.9-1.6,12,1.6c2,2,2.2,4.3,0.6,6.3c-1.6,1.9-3.7,2.3-6.1,0.7c-1.2-0.8-2.2-0.8-3.3,0
			c-2,1.5-4.4,2.6-6.3,4.4C170.1,138.1,169.8,138.3,169.5,138.4z"/>
	</g>
</g>
<g>
	<g>
		<path class="st8" d="M177.5,146.4c0.3-0.1,0.5-0.3,0.8-0.4c4.3-1.4,6.7-0.8,8.3,1.9c2,3.4,1.6,8.7-0.9,11.2
			c-1.9,1.9-4,1.9-6.4,1.1c-2.9-1.1-4.6-3.2-5-6.3C174,150.7,175.5,148.4,177.5,146.4z"/>
	</g>
</g>
<g>
	<g>
		<path class="st8" d="M232.7,146c0.3,0.1,0.5,0.3,0.8,0.4c1.8,1.9,3.2,3.9,3.1,6.8c-0.1,2.5-1.1,4.6-3.2,6c-4.4,3.1-9.2,1.2-10.2-4
			c-0.2-1.3-0.3-2.7-0.1-4C224,146.8,226.9,143.6,232.7,146z"/>
	</g>
</g>
<path class="st8" d="M319.3,325.7c-2.9-10.7-10.2-19.5-20.7-24.7c-3.6-1.8-7.5-3.1-11.4-3.9c2.2,5.4,4.4,10.8,6.7,16.3
	c2.6,6.3,5.2,12.6,7.8,19l-8.3,3.4c-2.6-6.4-5.2-12.7-7.7-19c-2.9-7-5.7-13.9-8.4-20.6c-4.2,0.1-8.4,0.6-12.5,1.7
	c-11.7,3.2-21.5,10.2-27.8,19.8c-6.4,9.8-8.3,21.1-5.4,31.7c0,0.2,0.1,0.3,0.2,0.5c1.6,4.2,6.5,11.1,14,11.1c1.1,0,2.3-0.1,3.5-0.5
	c5.5-1.5,8.7-6,10.6-10.1c3.9,2.8,9.3,4.7,15.7,3c7-1.9,10.7-7.3,12.5-12.2c4,3.3,9.5,6.2,16.1,4.5c12.4-3.3,15.3-17.3,15.5-17.9
	C319.5,327.1,319.5,326.4,319.3,325.7z"/>
<path class="st8" d="M319.3,325.7c-2.9-10.7-10.2-19.5-20.7-24.7c-3.6-1.8-7.5-3.1-11.4-3.9l0,0c-6.5-16.2-12.6-31.8-17.6-47.3
	l-0.9-2.9c0.5-5.1,0.5-10.3-0.1-15.5c-0.5-4.1-2.1-8-2.1-12.2c0.1-23.9,0.1-47.8,0.2-71.7c0-0.6-0.3-1.3,0.4-1.8
	c1.7,1.6,3.3,3.1,5,4.6c3,2.5,6.1,1.9,7.9-1.6c1.1-2.2,2-4.4,3.2-6.5c5-9.2,10.8-17.8,16.5-26.4c5.6-8.6,2.6-18.5-7-22.2
	C278.8,88.2,265,83,251.1,77.9c-7.2-2.6-13.9-1.4-19.7,3.7c-0.9,0.8-1.7,1-2.9,0.7c-6.5-1.5-13-2.4-19.6-2.6
	c-9.6-0.3-19.1,0.5-28.5,2.7c-1,0.2-1.7,0.1-2.5-0.6c-6.2-5.6-13.2-6.4-20.9-3.5c-7.4,2.8-14.9,5.5-22.4,8.4
	c-6.8,2.6-13.9,4.8-20.4,8c-3.9,1.9-6.1,5.2-7.1,9.4c-1.1,4.7,0.4,8.8,3,12.7c6.8,10.3,13.8,20.4,18.9,31.7c1.9,4,5,4.6,8.4,1.6
	c1.6-1.4,3.2-2.8,5-4.5c0.1,0.9,0.1,1.4,0.1,1.9c0.1,24,0.1,48.1,0.1,72.1c0,1.1-0.1,2.2-0.4,3.2c-2.2,8.1-2.6,16.2-1.8,24.3
	l-0.9,2.8c-5.3,16.2-11.6,32.5-18.5,49.5l0,0c-13.5,3.3-24.7,12.5-29.1,25.7c-0.1,0.2-0.1,0.3-0.1,0.5c-1.1,5-0.7,15.4,8.6,18.5
	c5.4,1.8,10.6-0.1,14.4-2.5c1.7,4.5,5.1,9.1,11.4,11.2c6.9,2.3,12.9-0.1,17.2-3.2c1.4,5,4.5,10.5,10.9,12.7c2.1,0.7,4.1,1,6,1
	c9.4,0,16.5-7,16.9-7.3c0.5-0.5,0.9-1.1,1.1-1.8c0.7-2,1.2-4,1.5-6c1,0.2,1.9,0.4,2.9,0.4c0.4,0,0.9,0,1.3,0c1.2,0,2.3-0.1,3.4-0.1
	c1.1-0.1,2.1-0.1,3.2-0.1c1,0,1.8,0.1,2.6,0.2s1.5,0.3,2.4,0.5c1.5,0.4,3.1,0.8,4.7,0.8c1.3,0,2.5-0.2,3.5-0.8
	c2.9-1.4,4.8-4.9,4.7-8.8c0-2.3-0.6-4.4-1.2-6.4c-0.2-0.7-0.4-1.4-0.6-2.1c-0.2-0.9-0.4-2.1-0.1-2.8c0.4-0.7,1.4-1.2,2.5-1.7
	l16.6-7.5c2.8-1.3,6.7-3,8.6-6.7c1.1-2.2,1-5.2-0.3-7.5c-1.1-1.8-2.8-2.9-4.7-2.9h-0.2c-0.2,0-0.4,0-0.6,0c-0.1,0-0.3,0-0.4,0
	c-0.1,0-0.2,0-0.3,0c-0.5-0.5-0.1-3.5,0.1-4.5V298c0.7-4.5-1-9.1-4.7-12.8c1.8-0.8,3.6-1.7,5.4-2.4c8.1-3.3,14.1-9.1,18.3-16.9
	c0.6-1.1,1.4-1.6,2.6-1.9c4.7-1,9.2-2.7,13.8-4c4.1,12,8.8,24,13.7,36.3c-4.2,0.1-8.4,0.6-12.5,1.7c-11.7,3.2-21.5,10.2-27.8,19.8
	c-6.4,9.8-8.3,21.1-5.4,31.7c0,0.2,0.1,0.3,0.2,0.5c1.6,4.2,6.5,11.1,14,11.1c1.1,0,2.3-0.1,3.5-0.5c5.5-1.5,8.7-6,10.6-10.1
	c3.9,2.8,9.3,4.7,15.7,3c7-1.9,10.7-7.3,12.5-12.2c4,3.3,9.5,6.2,16.1,4.5c12.4-3.3,15.3-17.3,15.5-17.9
	C319.5,327.1,319.5,326.4,319.3,325.7z M145.7,259.7c-0.1,0-0.2-0.1-0.4-0.1c4.8,1.4,9.5,2.9,14.3,4.2c1.2,0.3,1.9,0.8,2.4,1.8
	c3.4,6.3,8.1,11.3,14.1,14.8c-6.9,3.2-10.1,8.5-9.5,15.4c0.1,1.2,0.4,2.4,0.9,3.9c0.3,0.8,0.5,1.6,0.8,2.4c1.3,3.8,2,6.2,0.7,8.1
	c-0.4,0.6-1,1.1-1.7,1.7l-0.1,0.1c-5.1-5.1-11.5-9.1-19-11.6c-5.7-1.9-11.4-2.7-16.9-2.6C136.5,285,141.4,272.3,145.7,259.7z
	 M237,264.6c-2.6,3.8-6.1,6.7-10.3,8.8c-5.3,2.6-10.9,4.6-15.9,7.8c-0.5,0.3-1.1,0.5-1.4,0.9c-3.2,3.4-6.2,2.8-9.8,0
	c-4.2-3.2-9.3-5.2-14.2-7.3c-5.3-2.2-9.9-5.5-13.3-10.3c-0.5-0.7-1.2-1.4,0.1-2c3.4-1.3,6.2-3.5,9.1-5.5c0.4-0.2,0.7-0.4,1-0.5
	c0.7,0.1,1.1,0.5,1.6,0.8c12.4,10.1,28.8,10.1,41.1,0c1-0.8,1.7-1,2.8-0.2c2.9,2,5.6,4.1,8.9,5.5C238.1,263.1,237.5,263.9,237,264.6
	z M191.6,251.4c3.5-0.2,6.8-0.7,9.2-2.8c2.8-2.5,4.9-2.5,7.6,0c2.3,2.1,5.6,2.5,8.9,2.8C212.2,256.6,198.9,257.4,191.6,251.4z
	 M241.8,99.2c4,11,8.6,21.7,14.7,31.7c0.7,1.1,1,2.3,1,3.6c-0.1,22.2-0.1,44.6-0.2,66.8c0,0.4,0.1,0.8-0.4,1.3
	c-1.6-1.7-3.1-3.4-4.7-5.2c-1.3-1.3-2.6-2.5-3.9-3.7c-2.6-2.2-5.2-2.2-7-0.2c-1.9,2-1.6,4.8,0.9,7c2.9,2.5,5.5,5.2,7.8,8.2
	c8,10.6,10.7,22.6,9.5,35.6c-0.1,1.7-0.4,3.5-0.5,5.3c-0.1,1.2-0.5,2-1.7,2.3c-2.8,0.8-5.6,1.7-8.4,2.5c-4.3,1.3-8.3,0.2-11.9-2.3
	c-2.9-2-5.9-4-8.8-6.1c-3.2-2.3-6.6-3.8-10.6-4c-2.6-0.1-4.9-1-6.5-3.1c-1.3-1.7-1.2-2.1,0.7-2.8c6.6-2.5,11.2-7,12.9-13.9
	c2-8.4-1.1-15.1-9.8-16.9c-7-1.4-14.2-1.4-21.2,0.1c-8.4,1.9-11.2,8.3-9.5,16.1c1.4,7.3,6.1,12,13,14.6c2,0.7,2.1,1.1,0.8,2.8
	c-1.7,2.2-4.1,3-6.7,3.1c-3.7,0.2-6.9,1.5-9.9,3.6c-2.9,2.1-5.8,4.1-8.8,6.1c-4.3,3-8.9,3.7-13.8,2.3c-2.3-0.7-4.6-1.4-7-2.1
	c-0.9-0.3-1.6-0.8-1.8-1.9c-1.9-11.9-1.1-23.5,4.5-34.5c2.8-5.4,6.5-10.1,11.2-14.2c0.6-0.5,1.2-1,1.7-1.6c1.8-2,1.9-4.6,0.2-6.4
	c-1.6-1.8-4.1-2-6.2-0.4c-3,2.3-5.6,5-8,7.9c-0.4,0.5-0.8,1-1.3,1.4c-0.7-0.7-0.4-1.4-0.4-2.1c-0.1-21.8-0.1-43.5-0.2-65.3
	c-0.1-1.9,0.4-3.5,1.4-5c6.4-10.6,11.1-21.9,15.2-33.6c0.4-1,0.7-2,0.7-3.1c0-2.1-1.1-3.8-3.1-4.4s-4.1,0.1-5.2,2
	c-0.5,0.8-0.8,1.8-1.1,2.8c-4.6,13.1-10.2,25.8-17.8,37.3c-1.6,2.5-3.5,4.7-5.3,7c-0.8,1-1.4,1.2-2.2-0.2
	c-4.9-9.5-11.1-18.2-16.9-27.2c-2.7-4.2-1.7-7.4,3.1-9.2c13.2-5,26.4-9.9,39.5-14.9c5.2-2,9.7-1.3,13.4,2.9c2,2.3,4.2,2.8,7.1,2
	c10.3-2.8,20.7-3.4,31.3-2.8c5.8,0.4,11.6,1.2,17.2,2.8c2.9,0.8,5.2,0.4,7.3-2c3.6-4.1,8-4.9,13.1-2.9c13.2,5,26.4,10,39.7,15
	c4.7,1.8,5.6,5,2.9,9.2c-5.8,8.9-11.9,17.6-16.8,27c-0.9,1.8-1.6,1.1-2.4,0.1c-5.5-6.3-9.7-13.6-13.4-21c-3.8-7.7-7.1-15.5-9.8-23.6
	c-1.1-3.2-2.5-4.4-4.8-4.4c-2.6-0.1-4.4,1.8-4.4,4.4C240.3,95.6,241.2,97.4,241.8,99.2z M170.2,350c-1.9,1.6-7.4,5.4-12.9,3.5
	c-6.2-2.1-6-13.2-6-13.3c0.1-2-1.2-3.8-3-4.4c-0.5-0.2-1-0.2-1.5-0.2c-1.4,0-2.8,0.7-3.6,1.9c-0.1,0.1-6.8,9-14,6.6
	c-6.9-2.3-6.7-9.9-6.7-10.7c0.1-1.9-1-3.7-2.7-4.4c-1.8-0.7-3.8-0.3-5.1,1.2c-1.6,1.8-7.2,6.7-11.3,5.3c-1.1-0.4-2.3-1.1-2.8-3.8
	c-0.3-1.8-0.1-3.5,0-4c5.8-16.6,25.8-24.8,44.8-18.4C164.1,315.3,175,333.5,170.2,350z M301.5,337c-6.4,1.7-12.3-7.6-12.4-7.7
	c-1-1.7-3-2.5-5-2c-1.9,0.5-3.3,2.2-3.4,4.2c0,0.1-0.6,11.3-7.9,13.3c-7,1.9-11.1-4.5-11.5-5.2c-1-1.7-2.9-2.5-4.8-2.2
	c-1.9,0.4-3.3,1.9-3.6,3.8c-0.3,2.4-2.3,9.6-6.5,10.7c-3.7,1-6.2-4-6.6-5c-2.1-8.1-0.6-16.7,4.4-24.2c5.1-7.8,13.1-13.5,22.7-16
	c9.5-2.6,19.3-1.7,27.6,2.4c7.8,3.9,13.3,10.2,15.7,17.9C309.5,329.3,307.1,335.5,301.5,337z"/>
<path class="st5" d="M170.2,350c-1.9,1.6-7.4,5.4-12.9,3.5c-6.2-2.1-6-13.2-6-13.3c0.1-2-1.2-3.8-3-4.4c-0.5-0.2-1-0.2-1.5-0.2
	c-1.4,0-2.8,0.7-3.6,1.9c-0.1,0.1-6.8,9-14,6.6c-6.9-2.3-6.7-9.9-6.7-10.7c0.1-1.9-1-3.7-2.7-4.4c-1.8-0.7-3.8-0.3-5.1,1.2
	c-1.6,1.8-7.2,6.7-11.3,5.3c-1.1-0.4-2.3-1.1-2.8-3.8c-0.3-1.8-0.1-3.5,0-4c5.8-16.6,25.8-24.8,44.8-18.4
	C164.1,315.3,175,333.5,170.2,350z"/>
<path class="st5" d="M301.5,337c-6.4,1.7-12.3-7.6-12.4-7.7c-1-1.7-3-2.5-5-2c-1.9,0.5-3.3,2.2-3.4,4.2c0,0.1-0.6,11.3-7.9,13.3
	c-7,1.9-11.1-4.5-11.5-5.2c-1-1.7-2.9-2.5-4.8-2.2c-1.9,0.4-3.3,1.9-3.6,3.8c-0.3,2.4-2.3,9.6-6.5,10.7c-3.7,1-6.2-4-6.6-5
	c-2.1-8.1-0.6-16.7,4.4-24.2c5.1-7.8,13.1-13.5,22.7-16c9.5-2.6,19.3-1.7,27.6,2.4c7.8,3.9,13.3,10.2,15.7,17.9
	C309.5,329.3,307.1,335.5,301.5,337z"/>
<g>
	<polygon class="st8" points="29.1,526.8 24.1,526.8 24.1,520.9 20.9,520.9 20.9,536 24.1,536 24.1,529.4 29.1,529.4 29.1,536 
		32.3,536 32.3,520.9 29.1,520.9 	"/>
	<path class="st8" d="M42.6,524.1c-1.1,0-2.1,0.3-3,0.8c-0.8,0.5-1.5,1.2-1.9,2.1c-0.4,0.9-0.7,2-0.7,3.2c0,1.9,0.5,3.4,1.5,4.5
		s2.3,1.6,4.1,1.6c1.1,0,2.1-0.3,3-0.8c0.8-0.5,1.5-1.2,1.9-2.1c0.4-0.9,0.7-2,0.7-3.2c0-1.9-0.5-3.4-1.5-4.5
		C45.7,524.6,44.4,524.1,42.6,524.1z M44.3,533.1c-0.4,0.6-1,0.9-1.7,0.9c-0.8,0-1.3-0.3-1.7-0.9c-0.4-0.6-0.6-1.6-0.6-2.9
		c0-1.3,0.2-2.3,0.6-2.9c0.4-0.6,1-0.9,1.8-0.9s1.3,0.3,1.7,0.9c0.4,0.6,0.6,1.6,0.6,2.9C44.9,531.5,44.7,532.4,44.3,533.1z"/>
	<path class="st8" d="M57.4,533.8c-0.4,0-0.7-0.1-0.9-0.4c-0.2-0.2-0.3-0.6-0.3-1.2v-5.7h2.4l0.3-2.2h-2.7v-2.9l-3.1,0.4v2.5h-1.7
		v2.2h1.7v5.8c0,1.3,0.3,2.3,0.9,2.9s1.5,1,2.7,1c0.5,0,1-0.1,1.6-0.2c0.5-0.2,1-0.4,1.4-0.7l-1.1-2
		C58.2,533.7,57.8,533.8,57.4,533.8z"/>
	<path class="st8" d="M67.7,524.1c-1.1,0-2,0.3-2.8,0.8s-1.4,1.3-1.8,2.2c-0.4,0.9-0.6,2-0.6,3.2c0,1.9,0.5,3.3,1.5,4.4
		c1,1.1,2.4,1.6,4.2,1.6c1.6,0,3.1-0.5,4.4-1.6l-1.3-1.7c-0.5,0.3-1,0.6-1.4,0.8S69,534,68.5,534c-0.8,0-1.4-0.2-1.9-0.7
		s-0.7-1.2-0.8-2.2H73c0-0.7,0.1-1.1,0.1-1.2c0-1.8-0.5-3.3-1.4-4.3C70.7,524.6,69.4,524.1,67.7,524.1z M69.9,529.2h-4.2
		c0.1-1.1,0.3-1.8,0.6-2.3s0.9-0.7,1.5-0.7C69.2,526.2,69.9,527.2,69.9,529.2L69.9,529.2z"/>
	<path class="st8" d="M81.2,533.8c-0.4,0-0.6-0.3-0.6-0.8v-13.6l-3.1,0.3v13.4c0,1,0.3,1.8,0.8,2.3s1.3,0.8,2.2,0.8
		c0.7,0,1.4-0.1,2-0.4l-0.6-2.2C81.6,533.8,81.4,533.8,81.2,533.8z"/>
	<path class="st8" d="M100.4,524.1c-0.6,0-1.2,0.1-1.8,0.4c-0.6,0.3-1.1,0.7-1.5,1.3l-0.2-1.4h-2.7v16.3l3.1-0.3v-5.3
		c0.7,0.8,1.7,1.2,2.9,1.2c0.9,0,1.8-0.3,2.5-0.8s1.2-1.3,1.6-2.2s0.5-2,0.5-3.2c0-1.9-0.4-3.4-1.1-4.5
		C102.9,524.6,101.8,524.1,100.4,524.1z M99.2,534c-0.8,0-1.4-0.4-1.9-1.1v-5c0.3-0.5,0.6-0.8,1-1.1s0.8-0.4,1.2-0.4
		c0.7,0,1.2,0.3,1.5,0.9c0.3,0.6,0.5,1.6,0.5,3C101.4,532.7,100.7,534,99.2,534z"/>
	<path class="st8" d="M118.3,533.7c-0.1-0.2-0.2-0.5-0.2-1V528c0-1.3-0.4-2.3-1.1-3s-1.9-1-3.5-1c-1.4,0-2.8,0.3-4.3,0.8l0.7,2.1
		c1.2-0.4,2.2-0.6,3-0.6c0.7,0,1.3,0.1,1.6,0.4c0.3,0.3,0.5,0.8,0.5,1.5v0.6h-1.3c-1.7,0-3,0.3-3.9,1s-1.4,1.6-1.4,2.9
		c0,1.1,0.3,1.9,1,2.6s1.6,1,2.7,1c1.6,0,2.7-0.6,3.5-1.7c0.2,0.6,0.6,1,1,1.2c0.4,0.3,1,0.4,1.7,0.5l0.7-2
		C118.7,534.1,118.4,534,118.3,533.7z M115.1,532.8c-0.5,0.9-1.2,1.3-2,1.3c-0.5,0-0.8-0.1-1.1-0.4c-0.3-0.3-0.4-0.7-0.4-1.2
		c0-1.2,0.8-1.9,2.5-1.9h1V532.8z"/>
	<path class="st8" d="M127.8,524.8c-0.5,0.5-0.9,1.1-1.2,1.9l-0.3-2.2h-2.7V536h3.1v-6c0.2-1,0.5-1.7,0.9-2.2
		c0.4-0.5,0.9-0.7,1.6-0.7c0.3,0,0.6,0.1,1,0.2l0.5-3c-0.4-0.1-0.8-0.2-1.2-0.2C128.9,524.1,128.3,524.3,127.8,524.8z"/>
	<path class="st8" d="M142.9,533.7c-0.1-0.2-0.2-0.5-0.2-1V528c0-1.3-0.4-2.3-1.1-3c-0.7-0.7-1.9-1-3.5-1c-1.4,0-2.8,0.3-4.3,0.8
		l0.7,2.1c1.2-0.4,2.2-0.6,3-0.6c0.7,0,1.3,0.1,1.6,0.4c0.3,0.3,0.5,0.8,0.5,1.5v0.6h-1.3c-1.7,0-3,0.3-3.9,1s-1.4,1.6-1.4,2.9
		c0,1.1,0.3,1.9,1,2.6s1.6,1,2.7,1c1.6,0,2.7-0.6,3.5-1.7c0.2,0.6,0.6,1,1,1.2c0.4,0.3,1,0.4,1.7,0.5l0.7-2
		C143.2,534.1,143,534,142.9,533.7z M139.7,532.8c-0.5,0.9-1.2,1.3-2,1.3c-0.5,0-0.8-0.1-1.1-0.4c-0.3-0.3-0.4-0.7-0.4-1.2
		c0-1.2,0.8-1.9,2.5-1.9h1V532.8z"/>
	<path class="st8" d="M162.1,524.1c-0.6,0-1.2,0.1-1.8,0.4c-0.6,0.3-1.1,0.7-1.5,1.3l-0.2-1.4h-2.7v16.3l3.1-0.3v-5.3
		c0.7,0.8,1.7,1.2,2.9,1.2c0.9,0,1.8-0.3,2.5-0.8s1.2-1.3,1.6-2.2c0.4-0.9,0.5-2,0.5-3.2c0-1.9-0.4-3.4-1.1-4.5
		C164.7,524.6,163.6,524.1,162.1,524.1z M160.9,534c-0.8,0-1.4-0.4-1.9-1.1v-5c0.3-0.5,0.6-0.8,1-1.1s0.8-0.4,1.2-0.4
		c0.7,0,1.2,0.3,1.5,0.9c0.3,0.6,0.5,1.6,0.5,3C163.2,532.7,162.4,534,160.9,534z"/>
	<path class="st8" d="M175.8,524.1c-1.1,0-2,0.3-2.8,0.8s-1.4,1.3-1.8,2.2c-0.4,0.9-0.6,2-0.6,3.2c0,1.9,0.5,3.3,1.5,4.4
		c1,1.1,2.4,1.6,4.2,1.6c1.6,0,3.1-0.5,4.4-1.6l-1.3-1.7c-0.5,0.3-1,0.6-1.4,0.8s-0.9,0.2-1.4,0.2c-0.8,0-1.4-0.2-1.9-0.7
		s-0.7-1.2-0.8-2.2h7.2c0-0.7,0.1-1.1,0.1-1.2c0-1.8-0.5-3.3-1.4-4.3C178.7,524.6,177.5,524.1,175.8,524.1z M178,529.2h-4.2
		c0.1-1.1,0.3-1.8,0.6-2.3s0.9-0.7,1.5-0.7C177.3,526.2,178,527.2,178,529.2L178,529.2L178,529.2z"/>
	<path class="st8" d="M189.8,524.8c-0.5,0.5-0.9,1.1-1.2,1.9l-0.3-2.2h-2.7V536h3.1v-6c0.2-1,0.5-1.7,0.9-2.2s0.9-0.7,1.6-0.7
		c0.3,0,0.6,0.1,1,0.2l0.5-3c-0.4-0.1-0.8-0.2-1.2-0.2C191,524.1,190.4,524.3,189.8,524.8z"/>
	<path class="st8" d="M200.9,524.8c-0.5,0.5-0.9,1.1-1.2,1.9l-0.3-2.2h-2.7V536h3.1v-6c0.2-1,0.5-1.7,0.9-2.2s0.9-0.7,1.6-0.7
		c0.3,0,0.6,0.1,1,0.2l0.5-3c-0.4-0.1-0.8-0.2-1.2-0.2C202,524.1,201.4,524.3,200.9,524.8z"/>
	<path class="st8" d="M212,524.1c-1.1,0-2.1,0.3-3,0.8c-0.8,0.5-1.5,1.2-1.9,2.1c-0.4,0.9-0.7,2-0.7,3.2c0,1.9,0.5,3.4,1.5,4.5
		s2.3,1.6,4.1,1.6c1.1,0,2.1-0.3,3-0.8c0.8-0.5,1.5-1.2,1.9-2.1c0.4-0.9,0.7-2,0.7-3.2c0-1.9-0.5-3.4-1.5-4.5
		C215,524.6,213.7,524.1,212,524.1z M213.7,533.1c-0.4,0.6-1,0.9-1.7,0.9c-0.8,0-1.3-0.3-1.7-0.9s-0.6-1.6-0.6-2.9
		c0-1.3,0.2-2.3,0.6-2.9s1-0.9,1.8-0.9s1.3,0.3,1.7,0.9c0.4,0.6,0.6,1.6,0.6,2.9C214.2,531.5,214.1,532.4,213.7,533.1z"/>
	<path class="st8" d="M227,528.9c-0.7-0.2-1.2-0.4-1.5-0.5s-0.6-0.3-0.7-0.5c-0.1-0.2-0.2-0.4-0.2-0.6c0-0.3,0.1-0.6,0.4-0.8
		c0.3-0.2,0.7-0.3,1.2-0.3c0.9,0,1.9,0.3,2.9,0.9l1.2-1.8c-1.2-0.9-2.6-1.4-4.2-1.4c-0.9,0-1.7,0.1-2.4,0.4s-1.2,0.7-1.6,1.2
		c-0.4,0.5-0.6,1.1-0.6,1.8c0,0.9,0.3,1.6,0.8,2.2c0.6,0.6,1.4,1,2.6,1.4c0.7,0.2,1.3,0.4,1.6,0.5s0.6,0.3,0.7,0.5s0.2,0.4,0.2,0.7
		c0,0.4-0.2,0.7-0.5,0.9s-0.8,0.3-1.4,0.3c-1.1,0-2.1-0.4-3.1-1.1l-1.5,1.7c0.6,0.5,1.2,0.9,2,1.2s1.7,0.4,2.7,0.4
		c0.9,0,1.8-0.1,2.5-0.4c0.8-0.3,1.4-0.7,1.8-1.3c0.4-0.6,0.7-1.2,0.7-2c0-1-0.3-1.7-0.9-2.3C229.1,529.7,228.2,529.3,227,528.9z"/>
	<path class="st8" d="M255.2,524.1c-0.7,0-1.3,0.2-1.9,0.5c-0.6,0.3-1.1,0.8-1.6,1.4c-0.2-0.6-0.6-1.1-1-1.4c-0.5-0.3-1-0.5-1.7-0.5
		s-1.3,0.2-1.9,0.5c-0.5,0.3-1,0.7-1.5,1.3l-0.2-1.4h-2.7V536h3.1v-8c0.3-0.5,0.6-0.9,0.9-1.2c0.3-0.3,0.7-0.4,1.1-0.4
		c0.8,0,1.1,0.6,1.1,1.7v7.9h3.1v-8c0.3-0.6,0.6-1,0.9-1.2c0.3-0.3,0.7-0.4,1.1-0.4c0.8,0,1.1,0.6,1.1,1.7v7.9h3.1v-8.4
		c0-1.1-0.3-1.9-0.8-2.5C256.9,524.4,256.2,524.1,255.2,524.1z"/>
	<path class="st8" d="M270,532.5c-0.6,1-1.3,1.5-2.1,1.5c-0.4,0-0.8-0.1-1-0.4c-0.2-0.3-0.3-0.7-0.3-1.3v-7.9h-3.1v8.3
		c0,1.1,0.3,2,0.8,2.6c0.6,0.6,1.4,0.9,2.4,0.9c0.8,0,1.4-0.2,2-0.5s1.1-0.8,1.5-1.4l0.2,1.5h2.7v-11.5H270V532.5z"/>
	<path class="st8" d="M282.6,533.9l-2.3-9.5H277l3.6,11.5h1.1c-0.3,0.8-0.8,1.4-1.3,1.8c-0.5,0.4-1.3,0.6-2.4,0.8l0.3,2.2
		c1.7-0.1,3-0.6,4-1.4c1-0.8,1.7-1.9,2.2-3.4l3.7-11.6H285L282.6,533.9z"/>
	<path class="st8" d="M308.8,533.7c-0.1-0.2-0.2-0.5-0.2-1V528c0-1.3-0.4-2.3-1.1-3s-1.9-1-3.5-1c-1.4,0-2.8,0.3-4.3,0.8l0.7,2.1
		c1.2-0.4,2.2-0.6,3-0.6c0.7,0,1.3,0.1,1.6,0.4c0.3,0.3,0.5,0.8,0.5,1.5v0.6h-1.3c-1.7,0-3,0.3-3.9,1s-1.4,1.6-1.4,2.9
		c0,1.1,0.3,1.9,1,2.6c0.7,0.7,1.6,1,2.7,1c1.6,0,2.7-0.6,3.5-1.7c0.2,0.6,0.6,1,1,1.2c0.4,0.3,1,0.4,1.7,0.5l0.7-2
		C309.1,534.1,308.9,534,308.8,533.7z M305.6,532.8c-0.5,0.9-1.2,1.3-2,1.3c-0.5,0-0.8-0.1-1.1-0.4s-0.4-0.7-0.4-1.2
		c0-1.2,0.8-1.9,2.5-1.9h1V532.8z"/>
	<path class="st8" d="M326.6,524.1c-0.7,0-1.3,0.2-1.9,0.5s-1.1,0.8-1.6,1.4c-0.2-0.6-0.6-1.1-1-1.4c-0.5-0.3-1-0.5-1.7-0.5
		s-1.3,0.2-1.9,0.5c-0.5,0.3-1,0.7-1.5,1.3l-0.2-1.4h-2.7V536h3.1v-8c0.3-0.5,0.6-0.9,0.9-1.2s0.7-0.4,1.1-0.4
		c0.8,0,1.1,0.6,1.1,1.7v7.9h3.1v-8c0.3-0.6,0.6-1,0.9-1.2c0.3-0.3,0.7-0.4,1.1-0.4c0.8,0,1.1,0.6,1.1,1.7v7.9h3.1v-8.4
		c0-1.1-0.3-1.9-0.8-2.5C328.2,524.4,327.5,524.1,326.6,524.1z"/>
	<path class="st8" d="M344,533.7c-0.1-0.2-0.2-0.5-0.2-1V528c0-1.3-0.4-2.3-1.1-3s-1.9-1-3.5-1c-1.4,0-2.8,0.3-4.3,0.8l0.7,2.1
		c1.2-0.4,2.2-0.6,3-0.6c0.7,0,1.3,0.1,1.6,0.4c0.3,0.3,0.5,0.8,0.5,1.5v0.6h-1.3c-1.7,0-3,0.3-3.9,1s-1.4,1.6-1.4,2.9
		c0,1.1,0.3,1.9,1,2.6c0.7,0.7,1.6,1,2.7,1c1.6,0,2.7-0.6,3.5-1.7c0.2,0.6,0.6,1,1,1.2c0.4,0.3,1,0.4,1.7,0.5l0.7-2
		C344.3,534.1,344.1,534,344,533.7z M340.7,532.8c-0.5,0.9-1.2,1.3-2,1.3c-0.5,0-0.8-0.1-1.1-0.4s-0.4-0.7-0.4-1.2
		c0-1.2,0.8-1.9,2.5-1.9h1V532.8z"/>
	<path class="st8" d="M356.2,525.2c-0.8-0.8-1.7-1.2-2.8-1.2c-0.9,0-1.8,0.3-2.5,0.8s-1.3,1.2-1.6,2.2s-0.6,2-0.6,3.2
		c0,1.9,0.4,3.4,1.1,4.5s1.8,1.6,3.3,1.6c1.4,0,2.5-0.6,3.3-1.8l0.2,1.4h2.7v-16.1l-3.1-0.3V525.2z M356.2,532.6
		c-0.3,0.5-0.7,0.8-1,1.1c-0.3,0.2-0.7,0.3-1.2,0.3c-0.7,0-1.2-0.3-1.5-0.9c-0.4-0.6-0.5-1.6-0.5-2.9c0-1.3,0.2-2.3,0.6-2.9
		c0.4-0.6,1-0.9,1.7-0.9c0.4,0,0.8,0.1,1.1,0.3c0.3,0.2,0.6,0.5,0.9,0.8v5.1L356.2,532.6L356.2,532.6z"/>
	<path class="st8" d="M369.6,524.1c-1.1,0-2.1,0.3-3,0.8c-0.8,0.5-1.5,1.2-1.9,2.1c-0.4,0.9-0.7,2-0.7,3.2c0,1.9,0.5,3.4,1.5,4.5
		s2.3,1.6,4.1,1.6c1.1,0,2.1-0.3,3-0.8c0.8-0.5,1.5-1.2,1.9-2.1c0.4-0.9,0.7-2,0.7-3.2c0-1.9-0.5-3.4-1.5-4.5
		C372.6,524.6,371.3,524.1,369.6,524.1z M371.3,533.1c-0.4,0.6-1,0.9-1.7,0.9c-0.8,0-1.3-0.3-1.7-0.9s-0.6-1.6-0.6-2.9
		c0-1.3,0.2-2.3,0.6-2.9s1-0.9,1.8-0.9s1.3,0.3,1.7,0.9c0.4,0.6,0.6,1.6,0.6,2.9C371.9,531.5,371.7,532.4,371.3,533.1z"/>
	<path class="st8" d="M387.3,530.3c-0.6-0.6-1.5-1-2.7-1.3c-0.7-0.2-1.2-0.4-1.5-0.5s-0.6-0.3-0.7-0.5s-0.2-0.4-0.2-0.6
		c0-0.3,0.1-0.6,0.4-0.8s0.7-0.3,1.2-0.3c0.9,0,1.9,0.3,2.9,0.9l1.2-1.8c-1.2-0.9-2.6-1.4-4.2-1.4c-0.9,0-1.7,0.1-2.4,0.4
		s-1.2,0.7-1.6,1.2s-0.6,1.1-0.6,1.8c0,0.9,0.3,1.6,0.8,2.2c0.6,0.6,1.4,1,2.6,1.4c0.7,0.2,1.3,0.4,1.6,0.5s0.6,0.3,0.7,0.5
		s0.2,0.4,0.2,0.7c0,0.4-0.2,0.7-0.5,0.9s-0.8,0.3-1.4,0.3c-1.1,0-2.1-0.4-3.1-1.1l-1.5,1.7c0.6,0.5,1.2,0.9,2,1.2s1.7,0.4,2.7,0.4
		c0.9,0,1.8-0.1,2.5-0.4c0.8-0.3,1.4-0.7,1.8-1.3s0.7-1.2,0.7-2C388.2,531.6,387.9,530.8,387.3,530.3z"/>
</g>
</svg>
