<?xml version="1.0" encoding="utf-8"?>
<!-- Generator: Adobe Illustrator 24.3.0, SVG Export Plug-In . SVG Version: 6.00 Build 0)  -->
<svg version="1.1" id="Layer_1" xmlns="http://www.w3.org/2000/svg" xmlns:xlink="http://www.w3.org/1999/xlink" x="0px" y="0px"
	 viewBox="0 0 326.5 364.9" enable-background="new 0 0 326.5 364.9" xml:space="preserve">
<g>
	<path d="M160.4,364.9c-11.4-9.1-24-16-37.5-21.6c-13.5-5.6-23.6-15.3-30.5-28.1c-0.9-1.7-2-2.5-4-3c-8-2.2-15.9-4.6-23.9-7
		c-3.4-1-5.3-3.4-6-6.8c-3.6-18.4-4.1-36.7,0.9-54.9c0.5-1.7,0.6-3.5,0.6-5.3c0-40.1-0.1-80.2-0.2-120.3c0-0.8-0.1-1.6-0.2-3.1
		c-3.1,2.8-5.7,5.2-8.4,7.5c-5.6,4.9-10.9,4-14-2.7C28.6,100.9,17,83.9,5.6,66.8c-4.3-6.5-6.9-13.2-5-21.1c1.7-7,5.4-12.5,11.9-15.6
		c11-5.3,22.7-8.9,34.1-13.3C59,12,71.5,7.5,83.9,2.8c12.8-4.8,24.4-3.4,34.8,5.9c1.3,1.1,2.5,1.4,4.2,1c15.7-3.7,31.6-5,47.6-4.5
		c11.1,0.4,21.9,1.9,32.7,4.4c1.9,0.4,3.3,0.2,4.8-1.2c9.7-8.6,20.8-10.6,32.8-6.2c23.2,8.5,46.2,17.2,69.2,26.1
		c16.1,6.2,21.1,22.6,11.7,37c-9.5,14.5-19.2,28.8-27.5,44.1c-1.9,3.5-3.5,7.3-5.3,10.9c-2.9,5.8-8.1,6.8-13.1,2.6
		c-2.9-2.5-5.6-5-8.4-7.6c-1.2,0.9-0.7,2-0.7,3c-0.1,39.9-0.2,79.7-0.3,119.6c0,6.9,2.7,13.4,3.5,20.3c1.6,13.8,0.5,27.4-2.2,41
		c-0.6,3.2-2.7,5.3-5.8,6.2c-7.8,2.3-15.5,5.2-23.5,6.9c-2,0.4-3.3,1.3-4.3,3.1c-7,12.9-17,22.6-30.5,28.1
		c-13.5,5.6-26.1,12.5-37.5,21.6C164.2,364.9,162.3,364.9,160.4,364.9z M250.7,210.2c0.8-0.8,0.6-1.5,0.6-2.2
		c0.1-37.1,0.2-74.3,0.3-111.4c0-2.2-0.6-4.2-1.7-6C239.7,73.9,232,56,225.4,37.7c-1.1-3.1-2.6-6.1-2.6-9.6c0-4.3,3.1-7.4,7.4-7.3
		c3.9,0,6.2,2,8,7.3c4.6,13.5,10,26.6,16.4,39.4c6.2,12.4,13.1,24.5,22.3,35c1.4,1.7,2.5,2.9,4-0.1c8.2-15.7,18.4-30.2,28-45
		c4.5-7,2.9-12.4-4.9-15.4c-22.1-8.4-44.2-16.6-66.2-25c-8.5-3.2-15.9-2-21.9,4.9c-3.4,3.9-7.2,4.7-12.1,3.3
		c-9.4-2.7-19-4.1-28.7-4.7c-17.6-1-35.1,0-52.2,4.7c-4.8,1.3-8.5,0.5-11.8-3.3c-6.2-7-13.7-8.2-22.3-4.9
		c-21.9,8.4-43.9,16.6-65.9,24.9c-7.9,3-9.6,8.3-5.1,15.3c9.6,15,19.9,29.5,28.1,45.3c1.2,2.3,2.3,2,3.6,0.3c3-3.8,6.2-7.5,8.9-11.6
		C71.1,72,80.4,50.9,88.1,29c0.5-1.6,1.1-3.2,1.9-4.6c1.8-3.1,5.3-4.3,8.6-3.3c3.2,1,5.1,3.8,5.1,7.3c0,1.8-0.5,3.5-1.1,5.2
		c-6.8,19.4-14.7,38.3-25.3,56c-1.6,2.6-2.4,5.3-2.3,8.4c0.2,36.3,0.2,72.6,0.3,108.9c0,1.1-0.5,2.3,0.7,3.5
		c0.7-0.8,1.4-1.6,2.1-2.4c4.1-4.8,8.4-9.4,13.4-13.2c3.5-2.7,7.6-2.4,10.3,0.6c2.8,3,2.7,7.3-0.3,10.6c-0.9,1-1.9,1.8-2.9,2.7
		c-7.7,6.7-13.9,14.6-18.6,23.6c-9.3,18.3-10.6,37.6-7.5,57.5c0.3,1.8,1.5,2.6,3,3.1c3.9,1.2,7.7,2.4,11.6,3.5
		c8.2,2.3,15.9,1.2,23-3.8c4.9-3.4,9.8-6.7,14.6-10.2c5-3.5,10.3-5.7,16.5-6c4.4-0.2,8.4-1.6,11.2-5.2c2.2-2.8,2-3.5-1.3-4.7
		c-11.5-4.3-19.3-12.2-21.7-24.3c-2.7-13.1,1.9-23.8,15.9-26.9c11.7-2.6,23.6-2.5,35.3-0.2c14.5,2.9,19.6,14.1,16.3,28.1
		c-2.8,11.6-10.5,19.1-21.5,23.2c-3.2,1.2-3.4,1.9-1.2,4.7c2.8,3.5,6.6,5,10.9,5.1c6.7,0.2,12.4,2.8,17.7,6.6
		c4.8,3.5,9.7,6.8,14.6,10.1c6.1,4.1,12.7,5.9,19.9,3.8c4.7-1.3,9.3-2.8,14-4.2c2-0.6,2.8-1.9,2.9-3.9c0.2-3,0.7-5.9,0.9-8.8
		c1.9-21.7-2.6-41.7-15.9-59.4c-3.8-5-8.2-9.5-13-13.7c-4.1-3.6-4.6-8.2-1.5-11.6c3-3.4,7.4-3.3,11.7,0.3c2.2,1.9,4.4,4,6.5,6.1
		C245.5,204.5,248.1,207.4,250.7,210.2z M126.3,300c-0.5,0.2-1.1,0.5-1.7,0.9c-4.9,3.3-9.6,6.9-15.2,9.1c-2.2,0.9-1.1,2.1-0.2,3.3
		c5.6,8.1,13.2,13.5,22.1,17.2c8.2,3.4,16.7,6.7,23.7,12.1c5.9,4.6,10.9,5.7,16.3,0c0.6-0.7,1.6-1,2.4-1.5c8.3-5.3,17.7-8.6,26.5-13
		c6.9-3.4,12.7-8.3,17.1-14.6c0.8-1.2,1.9-2.5-0.3-3.4c-5.4-2.2-10-5.8-14.8-9.1c-1.8-1.3-3-1-4.7,0.3c-20.5,16.9-48,16.9-68.6,0
		C128.2,300.8,127.5,300.1,126.3,300z M182.4,236.5c0.1-4.2-1.1-5.8-5.3-6.6c-8.5-1.5-17-1.3-25.5-0.4c-7.6,0.8-9.3,4.2-7,11.5
		c0.6,1.9,1.6,3.7,2.9,5.2c3.7,4.5,8.6,6.7,14.2,7.1C173,254.1,182.5,246.3,182.4,236.5z M141.6,291.5c12.2,10,34.4,8.6,42.8-0.1
		c-5.5-0.4-10.9-1.1-14.8-4.6c-4.6-4.2-8.1-4.1-12.7,0C153,290.4,147.5,291.1,141.6,291.5z"/>
	<path d="M220.2,102.3c-3.4-3.2-7.6-5.3-11.4-7.8c-1.5-1-2.8-0.5-4.3,0.4c-4.4,2.6-8.1,2.1-10.7-1.4c-2.5-3.5-1.9-7.4,1.8-10.7
		c5.2-4.7,13.1-6,19.2-2.3c8.5,5.2,16.8,10.6,25.1,16.2c4.3,2.9,5.2,7.5,2.7,11.1c-2.4,3.5-6.7,4.1-11.1,1.4c-3.3-2-6.6-4.1-9.9-6.2
		C221.2,102.8,220.7,102.5,220.2,102.3z"/>
	<path d="M104.8,103c-3.3,2.1-6.6,4.2-9.9,6.2c-4.3,2.6-8.7,2-11.1-1.4c-2.5-3.6-1.6-8.2,2.7-11.1c8.2-5.5,16.4-10.9,24.8-16
		c6.5-3.9,14.9-2.6,20,2.6c3.3,3.4,3.7,7.2,1,10.5c-2.6,3.2-6.2,3.8-10.1,1.2c-2-1.3-3.6-1.4-5.5,0c-3.4,2.5-7.4,4.3-10.5,7.3
		C105.8,102.5,105.3,102.8,104.8,103z"/>
	<path d="M104.8,103c0.5-0.2,0.9-0.5,1.4-0.7c7.1-2.3,11.1-1.4,13.8,3.1c3.4,5.6,2.7,14.5-1.5,18.6c-3.1,3.1-6.7,3.2-10.6,1.8
		c-4.9-1.8-7.7-5.4-8.4-10.5C99,110.2,101.5,106.4,104.8,103z"/>
	<path d="M220.2,102.3c0.5,0.2,0.9,0.5,1.4,0.7c3,3.2,5.4,6.5,5.2,11.3c-0.2,4.2-1.9,7.6-5.3,10c-7.3,5.2-15.3,2-17-6.7
		c-0.4-2.2-0.5-4.5-0.1-6.7C205.7,103.7,210.5,98.4,220.2,102.3z"/>
</g>
<g>
</g>
<g>
</g>
<g>
</g>
<g>
</g>
<g>
</g>
<g>
</g>
<g>
</g>
<g>
</g>
<g>
</g>
<g>
</g>
<g>
</g>
<g>
</g>
<g>
</g>
<g>
</g>
<g>
</g>
</svg>
